<svg width="444" height="416" viewBox="0 0 444 416" fill="none" xmlns="http://www.w3.org/2000/svg">
<path d="M250.201 318.961L306.209 352.141L294.053 371.234L243.738 336.49L250.201 318.961Z" fill="#B3B3B3"/>
<path d="M250.201 318.961L261.279 325.534C262.203 329.917 260.202 337.116 256.509 345.254L243.738 336.49L250.201 318.961Z" fill="#999999"/>
<path d="M301.439 386.572L307.132 356.21L284.667 354.175L280.974 415.995C293.746 416.308 299.746 400.971 301.439 386.572Z" fill="#B3B3B3"/>
<path d="M283.436 351.045C278.666 357.305 280.051 366.07 286.052 370.608C292.361 375.304 300.823 373.895 305.439 367.791C309.902 361.687 308.825 352.767 302.516 348.071C296.515 343.533 288.052 344.941 283.436 351.045Z" fill="#FF864D"/>
<path d="M289.437 350.732L284.667 356.836L299.439 368.104L304.209 361.687L289.437 350.732Z" fill="#D64622"/>
<path d="M327.289 318.961L383.605 352.141L371.295 371.234L320.98 336.49L327.289 318.961Z" fill="#B3B3B3"/>
<path d="M327.289 318.961L338.367 325.534C339.444 329.917 337.752 337.116 334.059 345.254L320.98 336.49L327.289 318.961Z" fill="#999999"/>
<path d="M378.989 386.572L384.374 356.21L362.217 354.175L358.524 415.995C371.295 416.308 376.988 400.971 378.989 386.572Z" fill="#B3B3B3"/>
<path d="M360.524 351.045C356.216 357.305 357.447 366.07 363.602 370.608C369.603 375.304 378.373 373.895 382.681 367.791C387.297 361.687 386.066 352.767 379.912 348.071C373.911 343.533 365.294 344.941 360.524 351.045Z" fill="#FF864D"/>
<path d="M366.525 350.732L362.217 356.836L376.681 368.104L381.297 361.687L366.525 350.732Z" fill="#D64622"/>
<path d="M193.731 318.961L137.723 352.141L149.879 371.234L200.194 336.49L193.731 318.961Z" fill="#B3B3B3"/>
<path d="M193.731 318.961L182.807 325.534C181.729 329.917 183.73 337.116 187.423 345.254L200.194 336.49L193.731 318.961Z" fill="#999999"/>
<path d="M142.493 386.572L136.8 356.21L159.265 354.175L162.958 415.995C149.879 416.308 144.186 400.971 142.493 386.572Z" fill="#B3B3B3"/>
<path d="M160.65 351.045C165.266 357.305 163.881 366.07 157.88 370.608C151.571 375.304 143.109 373.895 138.493 367.791C134.03 361.687 135.107 352.767 141.108 348.071C147.571 343.533 155.88 344.941 160.65 351.045Z" fill="#FF864D"/>
<path d="M154.495 350.732L159.265 356.836L144.493 368.104L139.724 361.687L154.495 350.732Z" fill="#D64622"/>
<path d="M116.643 318.961L60.3275 352.141L72.637 371.234L122.952 336.49L116.643 318.961Z" fill="#B3B3B3"/>
<path d="M116.643 318.961L105.565 325.534C104.642 329.917 106.18 337.116 109.873 345.254L122.952 336.49L116.643 318.961Z" fill="#999999"/>
<path d="M64.9436 386.572L59.5582 356.21L81.7152 354.175L85.408 415.995C72.637 416.308 66.9438 400.971 64.9436 386.572Z" fill="#B3B3B3"/>
<path d="M83.4078 351.045C87.87 357.305 86.4852 366.07 80.4843 370.608C74.3296 375.304 65.713 373.895 61.2508 367.791C56.6347 361.687 57.8657 352.767 64.0204 348.071C70.0213 343.533 78.7917 344.941 83.4078 351.045Z" fill="#FF864D"/>
<path d="M77.4069 350.732L81.7152 356.836L67.4054 368.104L62.6355 361.687L77.4069 350.732Z" fill="#D64622"/>
<path d="M101.564 252.759C79.0995 266.844 66.6361 320.996 98.1791 331.638C138.8 345.254 305.901 345.254 346.368 331.638C377.911 320.996 363.14 265.436 343.137 252.759C318.672 237.421 123.721 238.83 101.564 252.759Z" fill="#FF592E"/>
<path d="M109.873 334.768C159.572 344.315 284.052 344.315 334.059 334.768C340.06 321.778 330.674 301.276 318.672 295.485C299.131 285.938 143.416 286.564 125.721 295.485C112.643 301.589 103.872 321.778 109.873 334.768Z" fill="#D64622"/>
<path d="M101.564 252.759C98.4869 254.532 95.8198 256.932 93.5631 259.958C94.794 260.74 96.4866 261.366 98.1791 261.68C138.8 275.296 305.901 275.296 346.368 261.68C348.061 261.366 349.446 260.74 350.831 259.958C348.523 256.984 345.753 254.48 343.137 252.759C343.137 252.759 342.676 252.759 342.676 252.446C316.98 237.421 124.029 238.83 101.564 252.759Z" fill="#D64622"/>
<path d="M103.872 47.7346C93.8708 62.7593 97.8714 229.283 95.1018 235.073C96.7943 236.795 98.4869 238.517 100.487 240.238C120.644 255.889 172.036 263.714 222.966 263.714C274.05 263.714 325.289 255.889 345.138 240.238C347.138 238.517 349.138 236.795 350.831 235.073C348.061 229.283 355.447 67.611 341.752 47.7346C334.982 37.5617 278.974 1.40856 222.966 0C166.958 1.40856 114.335 32.7099 103.872 47.7346Z" fill="#E6E6E6"/>
<path d="M296.823 45.074C315.595 45.074 330.674 60.4116 330.674 79.1925C330.674 98.2863 315.595 113.624 296.823 113.624C278.359 113.624 263.28 98.2863 263.28 79.1925C263.28 60.4116 278.359 45.074 296.823 45.074Z" fill="#55EFC4" fill-opacity="0.49"/>
<path d="M130.338 66.8285C114.951 100.321 103.565 168.558 128.03 196.886C158.957 233.352 286.668 233.352 317.903 196.886C342.06 168.558 330.674 100.321 315.287 66.8285C296.823 25.9802 149.109 25.9802 130.338 66.8285Z" fill="#00B894"/>
<path d="M325.596 97.1908C322.673 85.6093 319.288 75.1233 315.287 66.8285C311.286 58.0641 301.439 51.1778 288.052 46.0131C273.589 50.0822 263.28 63.3853 263.28 79.1925C263.28 98.2864 278.359 113.624 296.823 113.624C309.132 113.624 319.595 107.051 325.596 97.1908Z" fill="#55EFC4" fill-opacity="0.5"/>
<path d="M130.338 66.8285C114.951 100.321 103.565 168.558 128.03 196.886C137.416 208.154 155.88 215.98 177.729 220.049V40.5353C154.956 45.3871 136.492 53.8384 130.338 66.8285Z" fill="#2CDCAB"/>
<path d="M163.881 124.892C169.574 124.892 174.344 129.588 174.344 135.848C174.344 141.639 169.574 146.647 163.881 146.647C157.88 146.647 153.264 141.639 153.264 135.848C153.264 129.588 157.88 124.892 163.881 124.892Z" fill="#003333"/>
<path d="M282.052 124.892C287.745 124.892 292.822 129.588 292.822 135.848C292.822 141.639 287.745 146.647 282.052 146.647C276.051 146.647 271.281 141.639 271.281 135.848C271.281 129.588 276.051 124.892 282.052 124.892Z" fill="#003333"/>
<path d="M213.888 176.07H232.044C238.815 176.07 244.508 181.861 244.508 188.747C244.508 195.79 238.815 201.581 232.044 201.581H213.888C206.81 201.581 201.117 195.79 201.117 188.747C201.117 181.861 206.81 176.07 213.888 176.07Z" fill="#003333"/>
<path d="M132.03 291.103C115.566 299.554 105.873 333.673 129.722 340.246C159.88 348.697 284.36 348.697 314.979 340.246C338.367 333.673 327.289 298.928 312.21 291.103C294.053 281.556 148.802 282.182 132.03 291.103Z" fill="#FF864D"/>
<path d="M264.972 328.508C270.358 328.508 274.358 324.126 274.358 318.961C274.358 313.953 270.358 309.414 264.972 309.414C259.895 309.414 255.894 313.953 255.894 318.961C255.894 324.126 259.895 328.508 264.972 328.508Z" fill="white"/>
<path d="M222.043 328.508C226.967 328.508 231.429 324.126 231.429 318.961C231.429 313.953 226.967 309.414 222.043 309.414C216.965 309.414 212.657 313.953 212.657 318.961C212.657 324.126 216.965 328.508 222.043 328.508Z" fill="white"/>
<path d="M179.114 328.508C184.038 328.508 188.038 324.126 188.038 318.961C188.038 313.953 184.038 309.414 179.114 309.414C173.728 309.414 169.574 313.953 169.574 318.961C169.574 324.126 173.728 328.508 179.114 328.508Z" fill="white"/>
<path d="M47.8642 231.004L78.3301 254.167L66.9438 267.47L41.094 244.933L47.8642 231.004Z" fill="#D64622"/>
<path d="M47.8642 231.004L56.3269 237.421C56.9424 241.177 54.6344 246.968 50.9416 253.228L41.094 244.933L47.8642 231.004Z" fill="#A63114"/>
<path d="M61.5585 154.159C65.7129 147.429 80.792 148.682 83.7155 156.194C98.4868 191.095 27.092 235.386 21.7066 233.352C16.3212 232.413 -18.1452 154.629 12.6284 134.439C19.7063 130.057 32.7851 137.1 32.4774 145.395C32.1697 148.368 15.398 192.034 32.4774 198.294C49.8645 202.676 60.0198 156.976 61.5585 154.159Z" fill="#D64622"/>
<path d="M87.4083 287.347C80.792 286.877 68.6364 283.121 64.9436 277.8C60.6353 270.6 68.3287 252.446 76.7914 251.194C82.7923 249.785 93.8708 256.515 98.7946 261.367C104.642 267.157 95.8711 287.66 87.4083 287.347Z" fill="#FF864D"/>
<path d="M87.4083 287.347C80.792 286.877 68.6364 283.121 64.9436 277.8C62.9433 274.043 63.7127 267.783 66.0207 262.305L98.4868 276.704C95.8711 282.495 91.8705 287.66 87.4083 287.347Z" fill="#FF592E"/>
<path d="M27.7075 244.62C23.3992 239.142 17.7061 227.561 19.3986 221.457C21.3989 213.319 39.5554 206.746 46.1717 211.597C51.2493 215.353 53.8651 228.187 53.8651 235.073C53.8651 243.212 33.0929 250.724 27.7075 244.62Z" fill="#FF864D"/>
<path d="M27.7075 244.62C23.3992 239.143 17.7061 227.561 19.3986 221.457C20.3218 217.388 25.3995 213.632 31.0926 211.597L42.7866 245.246C36.7857 247.437 30.4771 247.75 27.7075 244.62Z" fill="#FF592E"/>
<path d="M396.068 231.004L365.602 254.167L376.988 267.47L402.838 244.933L396.068 231.004Z" fill="#D64622"/>
<path d="M396.068 231.004L387.759 237.421C386.99 241.177 389.451 246.968 393.144 253.228L402.838 244.933L396.068 231.004Z" fill="#A63114"/>
<path d="M382.374 154.159C378.373 147.429 363.14 148.682 360.217 156.194C345.445 191.095 416.84 235.386 422.225 233.352C427.611 232.413 462.231 154.629 431.304 134.439C424.226 130.057 411.147 137.1 411.455 145.395C411.916 148.368 428.688 192.034 411.455 198.294C394.068 202.676 384.066 156.976 382.374 154.159Z" fill="#D64622"/>
<path d="M356.524 287.347C362.832 286.877 375.296 283.121 378.989 277.8C383.297 270.6 375.603 252.446 367.295 251.194C361.14 249.785 350.061 256.515 345.138 261.367C339.444 267.157 348.061 287.66 356.524 287.347Z" fill="#FF864D"/>
<path d="M356.524 287.347C362.832 286.877 375.296 283.121 378.989 277.8C380.989 274.043 380.373 267.783 377.604 262.305L345.445 276.704C348.061 282.495 352.215 287.66 356.524 287.347Z" fill="#FF592E"/>
<path d="M416.225 244.62C420.533 239.142 426.226 227.561 424.533 221.457C422.533 213.319 404.531 206.746 397.76 211.597C392.375 215.353 390.067 228.187 390.067 235.073C390.067 243.212 410.839 250.724 416.225 244.62Z" fill="#FF864D"/>
<path d="M416.225 244.62C420.533 239.143 426.226 227.561 424.533 221.457C423.61 217.388 418.533 213.632 412.839 211.597L401.145 245.246C407.146 247.437 413.609 247.75 416.225 244.62Z" fill="#FF592E"/>
</svg>
