<svg version="1.2" xmlns="http://www.w3.org/2000/svg" viewBox="0 0 350 350" width="350" height="350">
	<title>New Project</title>
	<style>
		.s0 { fill: #b3b3b3 } 
		.s1 { fill: #999999 } 
		.s2 { fill: #ff864d } 
		.s3 { fill: #d64622 } 
		.s4 { fill: #ff592e } 
		.s5 { fill: #e6e6e6 } 
		.s6 { fill: #ffffff } 
		.s7 { fill: #6699ff } 
		.s8 { fill: #9abcff } 
		.s9 { fill: #003333 } 
		.s10 { fill: #a63114 } 
	</style>
	<path id="&lt;Path&gt;" class="s0" d="m193.5 246.3l36.4 21.2-7.9 12.2-32.7-22.2z"/>
	<path id="&lt;Path&gt;" class="s1" d="m193.5 246.3l7.2 4.2c0.6 2.8-0.7 7.4-3.1 12.6l-8.3-5.6z"/>
	<path id="&lt;Path&gt;" class="s0" d="m226.8 289.5l3.7-19.4-14.6-1.3-2.4 39.5c8.3 0.2 12.2-9.6 13.3-18.8z"/>
	<path id="&lt;Path&gt;" class="s2" d="m215.1 266.8c-3.1 4-2.2 9.6 1.7 12.5 4.1 3 9.6 2.1 12.6-1.8 2.9-3.9 2.2-9.6-1.9-12.6-3.9-2.9-9.4-2-12.4 1.9z"/>
	<path id="&lt;Path&gt;" class="s3" d="m219 266.6l-3.1 3.9 9.6 7.2 3.1-4.1z"/>
	<path id="&lt;Path&gt;" class="s0" d="m243.6 246.3l36.6 21.2-8 12.2-32.7-22.2z"/>
	<path id="&lt;Path&gt;" class="s1" d="m243.6 246.3l7.2 4.2c0.7 2.8-0.4 7.4-2.8 12.6l-8.5-5.6z"/>
	<path id="&lt;Path&gt;" class="s0" d="m277.2 289.5l3.5-19.4-14.4-1.3-2.4 39.5c8.3 0.2 12-9.6 13.3-18.8z"/>
	<path id="&lt;Path&gt;" class="s2" d="m265.2 266.8c-2.8 4-2 9.6 2 12.5 3.9 3 9.6 2.1 12.4-1.8 3-3.9 2.2-9.6-1.8-12.6-3.9-2.9-9.5-2-12.6 1.9z"/>
	<path id="&lt;Path&gt;" class="s3" d="m269.1 266.6l-2.8 3.9 9.4 7.2 3-4.1z"/>
	<path id="&lt;Path&gt;" class="s0" d="m156.8 246.3l-36.4 21.2 7.9 12.2 32.7-22.2z"/>
	<path id="&lt;Path&gt;" class="s1" d="m156.8 246.3l-7.1 4.2c-0.7 2.8 0.6 7.4 3 12.6l8.3-5.6z"/>
	<path id="&lt;Path&gt;" class="s0" d="m123.5 289.5l-3.7-19.4 14.6-1.3 2.4 39.5c-8.5 0.2-12.2-9.6-13.3-18.8z"/>
	<path id="&lt;Path&gt;" class="s2" d="m135.3 266.8c3 4 2.1 9.6-1.8 12.5-4.1 3-9.6 2.1-12.6-1.8-2.9-3.9-2.2-9.6 1.7-12.6 4.2-2.9 9.6-2 12.7 1.9z"/>
	<path id="&lt;Path&gt;" class="s3" d="m131.3 266.6l3.1 3.9-9.6 7.2-3.1-4.1z"/>
	<path id="&lt;Path&gt;" class="s0" d="m106.7 246.3l-36.6 21.2 8 12.2 32.7-22.2z"/>
	<path id="&lt;Path&gt;" class="s1" d="m106.7 246.3l-7.2 4.2c-0.6 2.8 0.4 7.4 2.8 12.6l8.5-5.6z"/>
	<path id="&lt;Path&gt;" class="s0" d="m73.1 289.5l-3.5-19.4 14.4-1.3 2.4 39.5c-8.3 0.2-12-9.6-13.3-18.8z"/>
	<path id="&lt;Path&gt;" class="s2" d="m85.1 266.8c2.9 4 2 9.6-1.9 12.5-4 3-9.6 2.1-12.5-1.8-3-3.9-2.2-9.6 1.8-12.6 3.9-2.9 9.6-2 12.6 1.9z"/>
	<path id="&lt;Path&gt;" class="s3" d="m81.2 266.6l2.8 3.9-9.3 7.2-3.1-4.1z"/>
	<path id="&lt;Path&gt;" class="s4" d="m96.9 204c-14.6 9-22.7 43.6-2.2 50.4 26.4 8.7 135 8.7 161.3 0 20.5-6.8 10.9-42.3-2.1-50.4-15.9-9.8-142.6-8.9-157 0z"/>
	<path id="&lt;Path&gt;" class="s3" d="m102.3 256.4c32.3 6.1 113.2 6.1 145.7 0 3.9-8.3-2.2-21.4-10-25.1-12.7-6.1-113.9-5.7-125.4 0-8.5 3.9-14.2 16.8-10.3 25.1z"/>
	<path id="&lt;Path&gt;" class="s3" d="m96.9 204q-3 1.7-5.2 4.6c0.8 0.5 1.9 0.9 3 1.1 26.4 8.7 135 8.7 161.3 0 1.1-0.2 2-0.6 2.9-1.1-1.5-1.9-3.3-3.5-5-4.6 0 0-0.3 0-0.3-0.2-16.7-9.6-142.1-8.7-156.7 0.2z"/>
	<path id="&lt;Path&gt;" class="s5" d="m98.4 73c-6.5 9.6-3.9 116-5.7 119.7 1.1 1.1 2.2 2.2 3.5 3.3 13.1 10 46.5 15 79.6 15 33.2 0 66.5-5 79.4-15 1.3-1.1 2.6-2.2 3.7-3.3-1.8-3.7 3-107-5.9-119.7-4.4-6.5-40.8-29.6-77.2-30.5-36.4 0.9-70.6 20.9-77.4 30.5z"/>
	<path id="&lt;Path&gt;" class="s6" d="m223.8 71.3c12.2 0 22 9.8 22 21.8 0 12.2-9.8 22-22 22-12 0-21.8-9.8-21.8-22 0-12 9.8-21.8 21.8-21.8z"/>
	<path id="&lt;Path&gt;" class="s7" d="m115.6 85.2c-10 21.4-17.4 65-1.5 83.1 20.1 23.3 103.1 23.3 123.4 0 15.7-18.1 8.3-61.7-1.7-83.1-12-26.1-108-26.1-120.2 0z"/>
	<path id="&lt;Path&gt;" class="s8" d="m242.5 104.6c-1.9-7.4-4.1-14.1-6.7-19.4-2.6-5.6-9-10-17.7-13.3-9.4 2.6-16.1 11.1-16.1 21.2 0 12.2 9.8 22 21.8 22 8 0 14.8-4.2 18.7-10.5z"/>
	<path id="&lt;Path&gt;" class="s8" d="m115.6 85.2c-10 21.4-17.4 65-1.5 83.1 6.1 7.2 18.1 12.2 32.3 14.8v-114.7c-14.8 3.1-26.8 8.5-30.8 16.8z"/>
	<path id="&lt;Path&gt;" class="s9" d="m137.4 122.3c3.7 0 6.8 3 6.8 7 0 3.7-3.1 6.9-6.8 6.9-3.9 0-6.9-3.2-6.9-6.9 0-4 3-7 6.9-7z"/>
	<path id="&lt;Path&gt;" class="s9" d="m214.2 122.3c3.7 0 7 3 7 7 0 3.7-3.3 6.9-7 6.9-3.9 0-7-3.2-7-6.9 0-4 3.1-7 7-7z"/>
	<path id="&lt;Path&gt;" class="s9" d="m169.9 155h11.8c4.4 0 8.1 3.7 8.1 8.1 0 4.5-3.7 8.2-8.1 8.2h-11.8c-4.6 0-8.3-3.7-8.3-8.2 0-4.4 3.7-8.1 8.3-8.1z"/>
	<path id="&lt;Path&gt;" class="s2" d="m116.7 228.5c-10.7 5.4-17 27.2-1.5 31.4 19.6 5.4 100.5 5.4 120.4 0 15.2-4.2 8-26.4-1.8-31.4-11.8-6.1-106.2-5.7-117.1 0z"/>
	<path id="&lt;Path&gt;" class="s6" d="m203.1 252.4c3.5 0 6.1-2.8 6.1-6.1 0-3.2-2.6-6.1-6.1-6.1-3.3 0-5.9 2.9-5.9 6.1 0 3.3 2.6 6.1 5.9 6.1z"/>
	<path id="&lt;Path&gt;" class="s6" d="m175.2 252.4c3.2 0 6.1-2.8 6.1-6.1 0-3.2-2.9-6.1-6.1-6.1-3.3 0-6.1 2.9-6.1 6.1 0 3.3 2.8 6.1 6.1 6.1z"/>
	<path id="&lt;Path&gt;" class="s6" d="m147.3 252.4c3.2 0 5.8-2.8 5.8-6.1 0-3.2-2.6-6.1-5.8-6.1-3.5 0-6.2 2.9-6.2 6.1 0 3.3 2.7 6.1 6.2 6.1z"/>
	<path id="&lt;Path&gt;" class="s3" d="m62 190.1l19.8 14.8-7.4 8.5-16.8-14.4z"/>
	<path id="&lt;Path&gt;" class="s10" d="m62 190.1l5.5 4.1c0.4 2.4-1.1 6.1-3.5 10.1l-6.4-5.3z"/>
	<path id="&lt;Path&gt;" class="s3" d="m70.9 141c2.7-4.3 12.5-3.5 14.4 1.3 9.6 22.3-36.8 50.6-40.3 49.3-3.5-0.6-25.9-50.3-5.9-63.2 4.6-2.8 13.1 1.7 12.9 7-0.2 1.9-11.1 29.8 0 33.8 11.3 2.8 17.9-26.4 18.9-28.2z"/>
	<path id="&lt;Path&gt;" class="s2" d="m87.7 226.1c-4.3-0.3-12.2-2.7-14.6-6.1-2.8-4.6 2.2-16.2 7.7-17 3.9-0.9 11.1 3.4 14.3 6.5 3.8 3.7-1.9 16.8-7.4 16.6z"/>
	<path id="&lt;Path&gt;" class="s4" d="m87.7 226.1c-4.3-0.3-12.2-2.7-14.6-6.1-1.3-2.4-0.8-6.4 0.7-9.9l21.1 9.2c-1.7 3.7-4.3 7-7.2 6.8z"/>
	<path id="&lt;Path&gt;" class="s2" d="m48.9 198.8c-2.8-3.5-6.5-10.9-5.4-14.8 1.3-5.2 13.1-9.4 17.4-6.3 3.3 2.4 5 10.6 5 15 0 5.2-13.5 10-17 6.1z"/>
	<path id="&lt;Path&gt;" class="s4" d="m48.9 198.8c-2.8-3.5-6.5-10.9-5.4-14.8 0.6-2.6 3.9-5 7.6-6.3l7.6 21.5c-3.9 1.4-8 1.6-9.8-0.4z"/>
	<path id="&lt;Path&gt;" class="s3" d="m288.3 190.1l-19.8 14.8 7.4 8.5 16.8-14.4z"/>
	<path id="&lt;Path&gt;" class="s10" d="m288.3 190.1l-5.4 4.1c-0.5 2.4 1.1 6.1 3.5 10.1l6.3-5.3z"/>
	<path id="&lt;Path&gt;" class="s3" d="m279.4 141c-2.6-4.3-12.5-3.5-14.4 1.3-9.6 22.3 36.8 50.6 40.3 49.3 3.5-0.6 26-50.3 5.9-63.2-4.6-2.8-13.1 1.7-12.9 7 0.3 1.9 11.2 29.8 0 33.8-11.3 2.8-17.8-26.4-18.9-28.2z"/>
	<path id="&lt;Path&gt;" class="s2" d="m262.6 226.1c4.1-0.3 12.2-2.7 14.6-6.1 2.8-4.6-2.2-16.2-7.6-17-4-0.9-11.2 3.4-14.4 6.5-3.7 3.7 1.9 16.8 7.4 16.6z"/>
	<path id="&lt;Path&gt;" class="s4" d="m262.6 226.1c4.1-0.3 12.2-2.7 14.6-6.1 1.3-2.4 0.9-6.4-0.9-9.9l-20.9 9.2c1.7 3.7 4.4 7 7.2 6.8z"/>
	<path id="&lt;Path&gt;" class="s2" d="m301.4 198.8c2.8-3.5 6.5-10.9 5.4-14.8-1.3-5.2-13-9.4-17.4-6.3-3.5 2.4-5 10.6-5 15 0 5.2 13.5 10 17 6.1z"/>
	<path id="&lt;Path&gt;" class="s4" d="m301.4 198.8c2.8-3.5 6.5-10.9 5.4-14.8-0.6-2.6-3.9-5-7.6-6.3l-7.6 21.5c3.9 1.4 8.1 1.6 9.8-0.4z"/>
</svg>