<svg version="1.2" xmlns="http://www.w3.org/2000/svg" viewBox="0 0 350 350" width="350" height="350">
	<title>New Project</title>
	<style>
		.s0 { fill: #9e1818 } 
		.s1 { fill: #801010 } 
		.s2 { fill: #d13030 } 
		.s3 { fill: #ff4646 } 
		.s4 { fill: #fd7676 } 
		.s5 { fill: #1a1a1a } 
		.s6 { fill: #000000 } 
	</style>
	<path id="&lt;Path&gt;" class="s0" d="m115.3 176.8c-11.8 17.6-20.3 52.9-2 67.8 23.6 18.9 120.6 18.9 144.1 0 18.3-14.9 9.8-50.2-1.9-67.8-14.2-21.2-126.1-21.2-140.2 0z"/>
	<path id="&lt;Path&gt;" class="s1" d="m115.3 176.8c-2 2.8-3.7 6.1-5.3 9.6 0.9 1.1 2 2.1 3.3 3 23.6 19 120.6 19 144.1 0 1.1-0.9 2.2-1.9 3.3-3-1.8-3.5-3.5-6.8-5.2-9.6-14.2-21.2-126.1-21.2-140.2 0z"/>
	<path id="&lt;Path&gt;" class="s2" d="m172.2 156.7c-2.2 7.4-3.7 22.3-0.2 28.4 4.3 8 22.4 8 26.8 0 3.5-6.1 1.7-21-0.5-28.4-2.6-8.9-23.5-8.9-26.1 0z"/>
	<path id="&lt;Path&gt;" class="s3" d="m115.3 78.7c-11.8 22.6-20.3 68.9-2 87.8 23.6 24.7 120.6 24.7 144.1 0 18.3-18.9 9.8-65.2-1.9-87.8-14.2-27.7-126.1-27.7-140.2 0z"/>
	<path id="&lt;Path&gt;" class="s4" d="m115.3 78.7c-11.8 22.6-20.3 68.9-2 87.8 7.2 7.7 21.2 12.9 37.9 15.7v-121.4c-17.6 3.3-31.6 9.1-35.9 17.9z"/>
	<path id="&lt;Path&gt;" class="s5" d="m151.7 129.9c3.5 0 6.1 2.6 6.1 6.1 0 3.3-2.6 5.9-6.1 5.9-3.3 0-5.9-2.6-5.9-5.9 0-3.5 2.6-6.1 5.9-6.1z"/>
	<path id="&lt;Path&gt;" class="s5" d="m218.8 129.9c3.5 0 6.1 2.6 6.1 6.1 0 3.3-2.6 5.9-6.1 5.9-3.2 0-5.9-2.6-5.9-5.9 0-3.5 2.7-6.1 5.9-6.1z"/>
	<path id="&lt;Path&gt;" class="s2" d="m137.7 157.1c4.6 0 8.3 3.8 8.3 8.3 0 4.8-3.7 8.5-8.3 8.5-4.6 0-8.3-3.7-8.3-8.5 0-4.5 3.7-8.3 8.3-8.3z"/>
	<path id="&lt;Path&gt;" class="s2" d="m233 157.1c4.6 0 8.3 3.8 8.3 8.3 0 4.8-3.7 8.5-8.3 8.5-4.6 0-8.3-3.7-8.3-8.5 0-4.5 3.7-8.3 8.3-8.3z"/>
	<path id="&lt;Path&gt;" class="s5" d="m185.3 45.7c0 0-2.4 0.3-3.1 1.1-0.6 0.9-3.9 23.8-3.5 24.4 0.7 1.6 12.4 1.6 13.3 0 0.2-0.6-2.8-23.5-3.7-24.4-0.6-0.8-3-1.1-3-1.1z"/>
	<path id="&lt;Path&gt;" class="s5" d="m185.3 49.2c0 0-0.3-1.5-1.4-1.9-1.3-0.5-30.7-2.4-31.3-2.2-2 0.4-2 7.8 0 8.5 0.6 0.2 30-2 31.3-2.4 1.1-0.4 1.4-1.8 1.4-2 0 0.2 0.4 1.6 1.5 2 1.1 0.4 30.5 2.6 31.2 2.4 1.9-0.7 1.9-8.1 0-8.5-0.7-0.2-30.1 1.7-31.2 2.2-1.1 0.4-1.5 1.9-1.5 1.9z"/>
	<path id="&lt;Path&gt;" class="s6" d="m185.3 52.9c2.6 0 4.8-1.7 4.8-3.7 0-1.9-2.2-3.5-4.8-3.5-2.4 0-4.6 1.6-4.6 3.5 0 2 2.2 3.7 4.6 3.7z"/>
	<path id="&lt;Path&gt;" class="s0" d="m99.6 205.3l-20.3 44.5 15.5 6.1 16.1-42.7z"/>
	<path id="&lt;Path&gt;" class="s1" d="m99.6 205.3l-4 8.8c1.4 3.2 5.5 6.7 11.2 10l4.1-10.9z"/>
	<path id="&lt;Path&gt;" class="s3" d="m70.6 249.8c-1.1 8.3 0 24.4 4.8 29.9 6.1 7.4 25.7 2.8 29.2-6.6 2.6-7.4-2-22.6-5.7-29.8-4.6-8.8-27-3.5-28.3 6.5z"/>
	<path id="&lt;Path&gt;" class="s4" d="m70.6 249.8c-1.1 8.3 0 24.4 4.8 29.9 2.8 3.5 8.9 4.3 14.6 3.2l-4.8-43.6c-7 1.1-14 5.1-14.6 10.5z"/>
	<path id="&lt;Path&gt;" class="s0" d="m97.6 288.8c0.2 1.3 0.7 2.4 1.1 3.5-0.4 2.4-0.9 5.5-0.2 7 1.1 2.8 7 3.3 8.7 0.7 1.3-2 1.3-7.2 0.9-9.9v-0.2c0-2.6-2-6.5-3.3-8.5-0.2-0.4-0.4-0.6-0.9-0.9-0.8-0.8-2.1-1.3-3.7-1.5-2.4-0.4-6.5 0.2-10.2 0.9-3.9 0.2-8.1 0.9-10.5 1.7-1.3 0.7-2.4 1.6-3 2.4-0.3 0.5-0.7 0.7-0.7 1.1-0.9 2.4-1.5 6.6-0.9 9.2v0.2c0.3 2.6 1.6 7.6 3.3 9.4 2.4 1.9 8.1 0.2 8.3-3.1 0.2-1.5-0.9-4.3-2-6.7 0.2-0.9 0.2-2.2 0.2-3.5 2-0.2 4.4-0.5 6.4-0.9 2.2-0.2 4.5-0.4 6.5-0.9z"/>
	<path id="&lt;Path&gt;" class="s3" d="m112.2 217.5c10 0 18.1-8.2 18.1-18.1 0-10-8.1-18.1-18.1-18.1-10 0-18.1 8.1-18.1 18.1 0 9.9 8.1 18.1 18.1 18.1z"/>
	<path id="&lt;Path&gt;" class="s4" d="m112.2 181.3c4.4 0 8.3 1.6 11.4 4l-28.2 21.1c-0.8-2.2-1.3-4.6-1.3-7 0-10 8.1-18.1 18.1-18.1z"/>
	<path id="&lt;Path&gt;" class="s0" d="m271.2 205.3l20.2 44.5-15.7 6.1-16.1-42.7z"/>
	<path id="&lt;Path&gt;" class="s1" d="m271.2 205.3l3.9 8.8c-1.3 3.2-5.5 6.7-11.4 10l-4.1-10.9z"/>
	<path id="&lt;Path&gt;" class="s3" d="m300.2 249.8c1 8.3 0 24.4-4.8 29.9-6.4 7.4-26 2.8-29.3-6.6-2.6-7.4 2-22.6 5.7-29.8 4.4-8.8 27-3.5 28.4 6.5z"/>
	<path id="&lt;Path&gt;" class="s4" d="m300.2 249.8c1 8.3 0 24.4-4.8 29.9-3.1 3.5-9 4.3-14.6 3.2l4.7-43.6c7 1.1 14 5.1 14.7 10.5z"/>
	<path id="&lt;Path&gt;" class="s0" d="m273.1 288.8c-0.4 1.3-0.9 2.4-1.3 3.5 0.7 2.4 0.9 5.5 0.4 7-1.3 2.8-7.1 3.3-8.9 0.7-1.3-2-1.3-7.2-0.9-9.9 0 0 0-0.2 0.3-0.2 0-2.6 1.7-6.5 3-8.5 0.2-0.4 0.7-0.6 1.1-0.9 0.9-0.8 2.2-1.3 3.5-1.5 2.6-0.4 6.7 0.2 10.5 0.9 3.9 0.2 8 0.9 10.4 1.7 1.3 0.7 2.4 1.6 3.1 2.4 0.2 0.5 0.4 0.7 0.6 1.1 0.7 2.4 1.5 6.6 0.9 9.2v0.2c-0.2 2.6-1.5 7.6-3.5 9.4-2.2 1.9-7.8 0.2-8.1-3.1-0.2-1.5 0.9-4.3 2-6.7-0.2-0.9-0.2-2.2-0.2-3.5-2.2-0.2-4.4-0.5-6.6-0.9-1.9-0.2-4.3-0.4-6.3-0.9z"/>
	<path id="&lt;Path&gt;" class="s3" d="m258.5 217.5c10 0 18.1-8.2 18.1-18.1 0-10-8.1-18.1-18.1-18.1-10 0-18.1 8.1-18.1 18.1 0 9.9 8.1 18.1 18.1 18.1z"/>
	<path id="&lt;Path&gt;" class="s4" d="m258.5 181.3c-4.3 0-8.3 1.6-11.3 4l27.9 21.1c1.1-2.2 1.5-4.6 1.5-7 0-10-8.1-18.1-18.1-18.1z"/>
	<path id="&lt;Path&gt;" class="s0" d="m152.1 249.6l-4.8 48.6 16.8 0.9 1.3-45.8z"/>
	<path id="&lt;Path&gt;" class="s1" d="m152.1 249.6l-1.1 9.6c2.4 2.6 7.4 4.6 14 5.9l0.4-11.8z"/>
	<path id="&lt;Path&gt;" class="s1" d="m123.8 288.4c-2.9 4.1-5.9 12.2-3.5 16.3h17 3.5c0.2-1.7 0.9-3.7 1.7-5 1.6-1.9 14.8-1.9 16.4 0 0.8 1.3 1.7 3.3 1.7 5h8.5c2.2-4.1-0.6-12.2-3.7-16.3-3.7-5.5-37.7-5.5-41.6 0z"/>
	<path id="&lt;Path&gt;" class="s3" d="m139.3 277.1c-0.9 6.3 0.2 18.7 4.8 22.9 5.6 5.4 23.7 1.5 26.8-5.9 2.4-5.7-2-17.5-5.5-22.9-4.1-6.6-25.1-2-26.1 5.9z"/>
	<path id="&lt;Path&gt;" class="s4" d="m139.3 277.1c-0.9 6.3 0.2 18.7 4.8 22.9 2.8 2.8 8.7 3.2 14.3 1.9l-7.2-33.1c-5.8 1.3-11.3 4.3-11.9 8.3z"/>
	<path id="&lt;Path&gt;" class="s0" d="m218.6 249.6l4.8 48.6-16.8 0.9-1.3-45.8z"/>
	<path id="&lt;Path&gt;" class="s1" d="m218.6 249.6l0.9 9.6c-2.2 2.6-7.4 4.6-14 5.9l-0.2-11.8z"/>
	<path id="&lt;Path&gt;" class="s1" d="m246.7 288.4c3.1 4.1 5.9 12.2 3.7 16.3h-17.2-3.5c0-1.7-0.8-3.7-1.7-5-1.3-1.9-14.8-1.9-16.4 0-0.6 1.3-1.5 3.3-1.7 5h-8.3c-2.4-4.1 0.7-12.2 3.5-16.3 3.9-5.5 37.9-5.5 41.6 0z"/>
	<path id="&lt;Path&gt;" class="s3" d="m231.5 277.1c0.8 6.3-0.2 18.7-4.8 22.9-5.9 5.4-24 1.5-26.8-5.9-2.4-5.7 1.9-17.5 5.4-22.9 4.2-6.6 25.1-2 26.2 5.9z"/>
	<path id="&lt;Path&gt;" class="s4" d="m231.5 277.1c0.8 6.3-0.2 18.7-4.8 22.9-2.9 2.8-9 3.2-14.6 1.9l7.4-33.1c5.9 1.3 11.3 4.3 12 8.3z"/>
	<path id="&lt;Path&gt;" class="s3" d="m175.9 246.3c-2.6 6.6-9.4 10.9-16.8 9.6-7.2-1.3-12.4-7.6-12.4-14.6z"/>
	<path id="&lt;Path&gt;" class="s3" d="m194.8 246.3c2.4 6.6 9.4 10.9 16.8 9.6 7.2-1.3 12.5-7.6 12.5-14.6z"/>
</svg>