<svg version="1.2" xmlns="http://www.w3.org/2000/svg" viewBox="0 0 350 350" width="350" height="350">
	<title>New Project</title>
	<style>
		.s0 { fill: #4d4d4d } 
		.s1 { fill: #333333 } 
		.s2 { fill: #fff000 } 
		.s3 { fill: #ffff6a } 
		.s4 { fill: #808080 } 
		.s5 { fill: #ffc100 } 
		.s6 { fill: #d64622 } 
		.s7 { fill: #ffffff } 
	</style>
	<path id="&lt;Path&gt;" class="s0" d="m99.9 193.3l-20.5 44.4 15.7 6.4 16.1-43z"/>
	<path id="&lt;Path&gt;" class="s1" d="m99.9 193.3l-4.2 8.7c1.3 3.2 5.7 6.7 11.4 10.2l4.1-11.1z"/>
	<path id="&lt;Path&gt;" class="s2" d="m70.6 244.9c-0.8 6.6 0 19.2 4.8 23.6 6.4 5.9 26 2.2 29.3-5 2.6-5.9-1.8-17.9-5.5-23.6-4.6-6.7-27.2-2.8-28.6 5z"/>
	<path id="&lt;Path&gt;" class="s3" d="m70.6 244.9c-0.8 6.6 0 19.2 4.8 23.6 3.1 2.8 9 3.5 14.9 2.6l-5-34.5c-7 0.9-14 4.2-14.7 8.3z"/>
	<path id="&lt;Path&gt;" class="s4" d="m97.7 277c0.4 1.1 0.9 2.4 1.3 3.2-0.7 2.7-0.9 5.5-0.2 7.2 1.1 2.9 7 3.3 8.7 0.7 1.3-2.2 1.3-7.4 0.9-10 0 0 0 0 0-0.2-0.3-2.7-2-6.6-3.3-8.6-0.2-0.4-0.7-0.6-1.1-0.8-0.9-0.7-2-1.3-3.5-1.5-2.4-0.3-6.5 0.2-10.4 1-4 0.3-8.1 0.7-10.3 1.6-1.5 0.6-2.4 1.5-3 2.6-0.5 0.2-0.7 0.6-0.9 1.1-0.7 2.2-1.5 6.5-0.9 8.9 0 0.2 0 0.2 0 0.2 0.2 2.6 1.5 7.7 3.5 9.4 2.2 2.2 7.8 0.2 8.3-2.8 0.2-1.8-0.9-4.6-2.2-6.8 0.2-1.1 0.2-2.4 0.2-3.7 2.2 0 4.4-0.4 6.6-0.9 2.1-0.2 4.3-0.4 6.3-0.6z"/>
	<path id="&lt;Path&gt;" class="s3" d="m75.9 189.3c5.4 4.8 18.7 12.9 27.5 13.3 11.3 0.7 26.1-12.4 21.8-19.2-3.3-5.4-19.2-11.1-28.2-13-10.9-2.2-27.7 12.8-21.1 18.9z"/>
	<path id="&lt;Path&gt;" class="s2" d="m75.9 189.3c5.4 4.8 18.7 12.9 27.5 13.3 5.6 0.3 12.2-2.8 16.7-6.7l-40.3-19.2c-4.6 4.3-7.2 9.6-3.9 12.6z"/>
	<path id="&lt;Path&gt;" class="s4" d="m82.9 262.6c-2.9 3.9-2.2 9.6 1.7 12.4 4.1 3.1 9.6 2.2 12.6-1.7 3.1-4 2.2-9.6-1.7-12.5-4.1-3-9.6-2.1-12.6 1.8z"/>
	<path id="&lt;Path&gt;" class="s1" d="m86.8 262.4l-3.1 3.9 9.6 7.2 3.1-3.9z"/>
	<path id="&lt;Path&gt;" class="s0" d="m250.1 193.3l20.3 44.4-15.5 6.4-16.2-43z"/>
	<path id="&lt;Path&gt;" class="s1" d="m250.1 193.3l4.1 8.7c-1.3 3.2-5.6 6.7-11.3 10.2l-4.2-11.1z"/>
	<path id="&lt;Path&gt;" class="s2" d="m279.3 244.9c0.9 6.6 0 19.2-4.8 23.6-6.3 5.9-25.9 2.2-29.2-5-2.6-5.9 1.7-17.9 5.4-23.6 4.6-6.7 27.3-2.8 28.6 5z"/>
	<path id="&lt;Path&gt;" class="s3" d="m279.3 244.9c0.9 6.6 0 19.2-4.8 23.6-3.1 2.8-8.9 3.5-14.8 2.6l4.8-34.5c6.9 0.9 13.9 4.2 14.8 8.3z"/>
	<path id="&lt;Path&gt;" class="s4" d="m252 277c-0.2 1.1-0.6 2.4-1 3.2 0.6 2.7 0.8 5.5 0.2 7.2-1.1 2.9-7 3.3-8.7 0.7-1.4-2.2-1.4-7.4-0.9-10 0 0 0 0 0-0.2 0.2-2.7 1.9-6.6 3.2-8.6 0.3-0.4 0.7-0.6 1.1-0.8 0.9-0.7 2-1.3 3.5-1.5 2.4-0.3 6.6 0.2 10.5 1 3.9 0.3 8.1 0.7 10.2 1.6 1.6 0.6 2.4 1.5 3.1 2.6 0.4 0.2 0.6 0.6 0.9 1.1 0.6 2.2 1.3 6.5 0.8 8.9 0 0.2 0 0.2 0 0.2-0.2 2.6-1.5 7.7-3.5 9.4-2.4 2.2-7.8 0.2-8.2-2.8-0.3-1.8 0.8-4.6 2.1-6.8-0.2-1.1-0.4-2.4-0.2-3.7-2.2 0-4.3-0.4-6.5-0.9q-3.3-0.3-6.6-0.6z"/>
	<path id="&lt;Path&gt;" class="s3" d="m274.1 189.3c-5.5 4.8-18.8 12.9-27.7 13.3-11.4 0.7-26-12.4-21.6-19.2 3.3-5.4 19.2-11.1 28.1-13 10.9-2.2 27.7 12.8 21.2 18.9z"/>
	<path id="&lt;Path&gt;" class="s2" d="m274.1 189.3c-5.5 4.8-18.8 12.9-27.7 13.3-5.7 0.3-12-2.8-16.6-6.7l40.1-19.2c4.8 4.3 7.4 9.6 4.2 12.6z"/>
	<path id="&lt;Path&gt;" class="s4" d="m267.1 262.6c2.8 3.9 2.2 9.6-2 12.4-3.9 3.1-9.6 2.2-12.4-1.7-3.1-4-2.2-9.6 1.7-12.5 4.2-3 9.6-2.1 12.7 1.8z"/>
	<path id="&lt;Path&gt;" class="s1" d="m263.2 262.4l3 3.9-9.6 7.2-3-3.9z"/>
	<path id="&lt;Path&gt;" class="s0" d="m136.7 262.6l-4.6 48.6 16.8 0.9 1.3-45.8z"/>
	<path id="&lt;Path&gt;" class="s1" d="m136.7 262.6l-0.9 9.6c2.4 2.6 7.5 4.6 14 5.9l0.4-11.8z"/>
	<path id="&lt;Path&gt;" class="s1" d="m108.6 301.4c-2.8 4.1-5.9 12.2-3.5 16.3h17 3.5c0-1.7 0.9-3.7 1.7-5 1.6-1.9 14.9-1.9 16.4 0 0.9 1.3 1.7 3.3 1.7 5h8.5c2.2-4.1-0.6-12.2-3.7-16.3-3.7-5.5-37.7-5.5-41.6 0z"/>
	<path id="&lt;Path&gt;" class="s2" d="m124.1 290.1c-0.9 6.3 0.2 18.7 4.5 22.9 5.9 5.4 24 1.5 27.1-5.9 2.4-5.7-2-17.5-5.5-22.9-4.1-6.6-25-2-26.1 5.9z"/>
	<path id="&lt;Path&gt;" class="s3" d="m124.1 290.1c-0.9 6.3 0.2 18.7 4.5 22.9 3.1 2.8 9 3.2 14.7 1.9l-7.2-33.1c-5.9 1.3-11.6 4.3-12 8.3z"/>
	<path id="&lt;Path&gt;" class="s4" d="m153.7 299.7c2.8 3.9 2 9.5-1.9 12.4-4 3-9.6 2.2-12.5-1.8-3-3.9-2.2-9.6 1.8-12.6 3.9-2.8 9.6-2.2 12.6 2z"/>
	<path id="&lt;Path&gt;" class="s1" d="m149.8 299.4l2.8 4-9.3 7.2-3.1-4.2z"/>
	<path id="&lt;Path&gt;" class="s0" d="m213.2 262.6l4.6 48.6-16.8 0.9-1.3-45.8z"/>
	<path id="&lt;Path&gt;" class="s1" d="m213.2 262.6l0.9 9.6c-2.4 2.6-7.4 4.6-13.9 5.9l-0.5-11.8z"/>
	<path id="&lt;Path&gt;" class="s1" d="m241.4 301.4c2.8 4.1 5.8 12.2 3.4 16.3h-17-3.4c0-1.7-0.9-3.7-1.8-5-1.5-1.9-14.8-1.9-16.3 0-0.9 1.3-1.8 3.3-1.8 5h-8.5c-2.2-4.1 0.7-12.2 3.7-16.3 3.7-5.5 37.7-5.5 41.7 0z"/>
	<path id="&lt;Path&gt;" class="s2" d="m225.9 290.1c0.9 6.3-0.2 18.7-4.8 22.9-5.7 5.4-23.8 1.5-26.8-5.9-2.4-5.7 1.9-17.5 5.4-22.9 4.2-6.6 25.1-2 26.2 5.9z"/>
	<path id="&lt;Path&gt;" class="s3" d="m225.9 290.1c0.9 6.3-0.2 18.7-4.8 22.9-2.9 2.8-8.7 3.2-14.4 1.9l7.2-33.1c5.9 1.3 11.5 4.3 12 8.3z"/>
	<path id="&lt;Path&gt;" class="s4" d="m196.2 299.7c-2.8 3.9-1.9 9.5 2 12.4 3.9 3 9.6 2.2 12.4-1.8 3.1-3.9 2.2-9.6-1.7-12.6-3.9-2.8-9.6-2.2-12.7 2z"/>
	<path id="&lt;Path&gt;" class="s1" d="m200.2 299.4l-2.9 4 9.4 7.2 3-4.2z"/>
	<path id="&lt;Path&gt;" class="s0" d="m244.4 105.4c-1.7 8.3-3.3 25.1-0.2 31.8 3.7 9 19.4 9 23.1 0 3.1-6.7 1.5-23.5-0.2-31.8-2.4-10-20.3-10-22.7 0z"/>
	<path id="&lt;Path&gt;" class="s0" d="m105.3 105.4c2 8.3 3.3 25.1 0.5 31.8-3.8 9-19.5 9-23.2 0-3-6.7-1.5-23.5 0.3-31.8 2.4-10 20.2-10 22.4 0z"/>
	<path id="&lt;Path&gt;" class="s2" d="m113.6 189.8c-10.2 17.6-17.9 52.9-1.7 67.8 20.7 18.9 105.5 18.9 126.2 0 16.1-14.9 8.5-50.2-1.8-67.8-12.4-21.2-110.3-21.2-122.7 0z"/>
	<path id="&lt;Path&gt;" class="s5" d="m113.6 189.8c-1.7 2.8-3.3 6.1-4.6 9.6 0.9 1.1 1.8 2.1 2.9 3 20.7 19 105.5 19 126.2 0 1.1-0.9 2-1.9 2.8-3-1.5-3.5-3-6.8-4.6-9.6-12.4-21.2-110.3-21.2-122.7 0z"/>
	<path id="&lt;Path&gt;" class="s0" d="m161.8 182.1c-2.2 4.8-3.7 14.2-0.2 18.1 4.3 5.3 22.4 5.3 26.8 0 3.5-3.9 1.9-13.3-0.2-18.1-2.9-5.6-23.6-5.6-26.4 0z"/>
	<path id="&lt;Path&gt;" class="s2" d="m104.9 73.8c-11.8 24.8-20.3 75.9-2 97 23.6 27 120.6 27 144.1 0 18.3-21.1 9.8-72.2-1.9-97-14.2-30.5-126.1-30.5-140.2 0z"/>
	<path id="&lt;Path&gt;" class="s3" d="m104.9 73.8c-11.8 24.8-20.3 75.9-2 97 7.2 8.3 21.2 14 38 17.2v-133.8c-17.7 3.4-31.7 10-36 19.6z"/>
	<path id="&lt;Path&gt;" class="s5" d="m127.3 145.3c4.6 0 8.3 3.7 8.3 8.5 0 4.6-3.7 8.3-8.3 8.3-4.5 0-8.3-3.7-8.3-8.3 0-4.8 3.8-8.5 8.3-8.5z"/>
	<path id="&lt;Path&gt;" class="s5" d="m222.6 145.3c4.6 0 8.3 3.7 8.3 8.5 0 4.6-3.7 8.3-8.3 8.3-4.6 0-8.3-3.7-8.3-8.3 0-4.8 3.7-8.5 8.3-8.5z"/>
	<path id="&lt;Path&gt;" class="s6" d="m130.8 105.2h16.2c9.1 0 16.7 7.4 16.7 16.8 0 9.1-7.6 16.8-16.7 16.8h-16.2c-9.1 0-16.8-7.7-16.8-16.8 0-9.4 7.7-16.8 16.8-16.8z"/>
	<path id="&lt;Path&gt;" class="s7" d="m121.2 119.3h35.3c1.4 0 2.4 1.4 2.4 2.7 0 1.3-1 2.4-2.4 2.4h-35.3c-1.5 0-2.6-1.1-2.6-2.4 0-1.3 1.1-2.7 2.6-2.7z"/>
	<path id="&lt;Path&gt;" class="s6" d="m203 105.2h16.1c9.2 0 16.8 7.4 16.8 16.8 0 9.1-7.6 16.8-16.8 16.8h-16.1c-9.2 0-16.8-7.7-16.8-16.8 0-9.4 7.6-16.8 16.8-16.8z"/>
	<path id="&lt;Path&gt;" class="s7" d="m193.4 119.3h35.3c1.3 0 2.4 1.4 2.4 2.7 0 1.3-1.1 2.4-2.4 2.4h-35.3c-1.5 0-2.6-1.1-2.6-2.4 0-1.3 1.1-2.7 2.6-2.7z"/>
	<path id="&lt;Path&gt;" class="s0" d="m161.3 238.4h26.6c1.6 0 3.1 1.3 3.1 2.8v30.5c0 1.6-1.5 2.9-3.1 2.9h-26.6c-1.7 0-3-1.3-3-2.9v-30.5c0-1.5 1.3-2.8 3-2.8z"/>
	<path id="&lt;Path&gt;" class="s1" d="m161.8 241.4h25.7v3.7c0 2-1.7 3.8-3.9 3.8h-18.1c-2 0-3.7-1.8-3.7-3.8z"/>
	<path id="&lt;Path&gt;" class="s1" d="m161.8 252.8h25.7v3.7c0 2.2-1.7 3.7-3.9 3.7h-18.1c-2 0-3.7-1.5-3.7-3.7z"/>
	<path id="&lt;Path&gt;" class="s1" d="m161.8 264.1h25.7v3.7c0 2.2-1.7 3.7-3.9 3.7h-18.1c-2 0-3.7-1.5-3.7-3.7z"/>
</svg>