<svg version="1.2" xmlns="http://www.w3.org/2000/svg" viewBox="0 0 350 350" width="350" height="350">
	<title>New Project</title>
	<style>
		.s0 { fill: #333333 } 
		.s1 { fill: #666666 } 
		.s2 { fill: #4d4d4d } 
		.s3 { fill: #ffffff } 
		.s4 { fill: #b3b3b3 } 
		.s5 { fill: #e6e6e6 } 
		.s6 { fill: #99cc33 } 
		.s7 { fill: #b4da6a } 
		.s8 { fill: #003333 } 
		.s9 { fill: #6699ff } 
		.s10 { fill: #ff99cc } 
	</style>
	<path id="&lt;Path&gt;" class="s0" d="m116 238.1c-10.9 8.3-17 41.2-1.7 47.5 19.6 8.3 100.7 8.3 120.3 0 15.3-6.3 8.1-39.9-1.5-47.5-12-9.4-106.4-8.5-117.1 0z"/>
	<path id="&lt;Path&gt;" class="s0" d="m207.8 266.2h39.1c16.1 0 29.4 11.3 29.4 25.3 0 13.9-13.3 25.3-29.4 25.3h-39.1c-16.1 0-29.6-11.4-29.6-25.3 0-14 13.5-25.3 29.6-25.3z"/>
	<path id="&lt;Path&gt;" class="s1" d="m208.3 271.4h38.6c12.8 0 23.5 9.2 23.5 20.1 0 10.9-10.7 20-23.5 20h-38.6c-13.1 0-23.8-9.1-23.8-20 0-10.9 10.7-20.1 23.8-20.1z"/>
	<path id="&lt;Compound Path&gt;" class="s2" d="m270.4 291.5q0 0.3 0 0.6 0 0.4 0 0.7c0 0 0 0.2 0 0.4q0 0.4 0 0.7c0 0.2 0 0.4-0.2 0.6 0 0.3 0 0.5 0 0.5q0 0.3 0 0.6c-0.2 0.3-0.2 0.5-0.2 0.7 0 0.2 0 0.4 0 0.4-0.2 0.2-0.2 0.5-0.2 0.7 0 0.2-0.3 0.4-0.3 0.6 0 0.2 0 0.2-0.2 0.5q0 0.3 0 0.6c-0.2 0.2-0.2 0.2-0.2 0.5-0.2 0.2-0.2 0.4-0.2 0.6-0.2 0.2-0.2 0.2-0.2 0.4-0.3 0.3-0.3 0.5-0.3 0.7-0.2 0.2-0.4 0.7-0.6 0.9 0 0.2 0 0.4-0.2 0.6 0 0-0.2 0.2-0.2 0.5-0.3 0.2-0.3 0.2-0.3 0.4-0.2 0.4-0.4 0.7-0.6 1.1-0.5 0.4-0.7 0.9-1.1 1.3 0 0.2-0.2 0.2-0.4 0.4-0.3 0.5-0.7 0.9-1.1 1.3-0.3 0.3-0.5 0.5-0.7 0.9-0.4 0.2-0.6 0.4-0.9 0.7-0.2 0.2-0.4 0.2-0.4 0.4-0.2 0-0.4 0.2-0.4 0.2-0.3 0.2-0.5 0.2-0.5 0.5-0.2 0.2-0.4 0.2-0.6 0.4 0 0-0.2 0.2-0.5 0.2-0.2 0.2-0.6 0.4-0.8 0.7-0.3 0-0.5 0.2-0.5 0.2-0.2 0.2-0.4 0.2-0.6 0.2 0 0.2-0.2 0.2-0.5 0.4-0.2 0-0.4 0-0.4 0.3-0.2 0-0.4 0.2-0.6 0.2 0 0-0.3 0.2-0.5 0.2-0.2 0-0.4 0.2-0.6 0.2 0 0-0.3 0.2-0.5 0.2-0.2 0-0.4 0.2-0.6 0.2 0 0-0.2 0-0.5 0.3q-0.3 0-0.6 0c0 0.2-0.2 0.2-0.5 0.2-0.2 0-0.4 0.2-0.6 0.2-0.2 0-0.4 0-0.4 0-0.3 0.2-0.5 0.2-0.7 0.2q-0.3 0-0.7 0c-0.2 0.2-0.4 0.2-0.4 0.2q-0.3 0-0.6 0-0.4 0-0.7 0-0.3 0-0.7 0c-0.2 0.3-0.4 0.3-0.4 0.3q-0.3 0-0.6 0h-38.6c-13.1 0-23.8-10.7-23.8-23.8z"/>
	<path id="&lt;Path&gt;" class="s3" d="m247.3 307c8.7 0 15.5-7 15.5-15.5 0-8.5-6.8-15.5-15.5-15.5-8.5 0-15.3 7-15.3 15.5 0 8.5 6.8 15.5 15.3 15.5z"/>
	<path id="&lt;Path&gt;" class="s4" d="m243.2 301.7h8.5v-20.5h-8.5z"/>
	<path id="&lt;Path&gt;" class="s3" d="m218.5 280.6c6.1 6.1 6.1 15.7 0 21.8-5.9 6.1-15.7 6.1-21.8 0-5.9-6.1-5.9-15.7 0-21.8 6.1-6.1 15.9-6.1 21.8 0z"/>
	<path id="&lt;Path&gt;" class="s4" d="m212 281.2l6.1 6.1-14.6 14.4-6.1-6.1z"/>
	<path id="&lt;Path&gt;" class="s0" d="m101.9 266.2h39c16.1 0 29.4 11.3 29.4 25.3 0 13.9-13.3 25.3-29.4 25.3h-39c-16.4 0-29.7-11.4-29.7-25.3 0-14 13.3-25.3 29.7-25.3z"/>
	<path id="&lt;Path&gt;" class="s1" d="m102.3 271.4h38.6c12.9 0 23.5 9.2 23.5 20.1 0 10.9-10.6 20-23.5 20h-38.6c-13.1 0-23.8-9.1-23.8-20 0-10.9 10.7-20.1 23.8-20.1z"/>
	<path id="&lt;Compound Path&gt;" class="s2" d="m164.4 291.5q0 0.3 0 0.6 0 0.4 0 0.7c0 0 0 0.2 0 0.4q0 0.4 0 0.7c0 0.2 0 0.4-0.2 0.6 0 0.3 0 0.5 0 0.5q0 0.3 0 0.6c-0.2 0.3-0.2 0.5-0.2 0.7 0 0.2 0 0.4-0.2 0.4q0 0.3 0 0.7c0 0.2-0.2 0.4-0.2 0.6 0 0.2 0 0.2-0.2 0.5q0 0.3 0 0.6c-0.3 0.2-0.3 0.2-0.3 0.5-0.2 0.2-0.2 0.4-0.2 0.6-0.2 0.2-0.2 0.2-0.2 0.4-0.2 0.3-0.2 0.5-0.2 0.7-0.2 0.2-0.5 0.7-0.7 0.9 0 0.2 0 0.4-0.2 0.6 0 0-0.2 0.2-0.2 0.5-0.2 0.2-0.2 0.2-0.4 0.4 0 0.4-0.3 0.7-0.5 1.1-0.4 0.4-0.6 0.9-1.1 1.3-0.2 0.2-0.2 0.2-0.4 0.4-0.2 0.5-0.7 0.9-1.1 1.3-0.2 0.3-0.4 0.5-0.9 0.9q-0.3 0.3-0.6 0.7c-0.2 0.2-0.5 0.2-0.5 0.4-0.2 0-0.4 0.2-0.4 0.2-0.2 0.2-0.4 0.2-0.4 0.5-0.2 0.2-0.5 0.2-0.7 0.4 0 0-0.2 0.2-0.4 0.2-0.2 0.2-0.7 0.4-0.9 0.7-0.2 0-0.4 0.2-0.4 0.2-0.2 0.2-0.5 0.2-0.7 0.2 0 0.2-0.2 0.2-0.4 0.4-0.2 0-0.5 0-0.5 0.3-0.2 0-0.4 0.2-0.6 0.2-0.2 0-0.2 0.2-0.4 0.2-0.3 0-0.5 0.2-0.7 0.2 0 0-0.2 0.2-0.4 0.2-0.3 0-0.5 0.2-0.7 0.2 0 0-0.2 0-0.4 0.3q-0.4 0-0.7 0c-0.2 0.2-0.2 0.2-0.4 0.2-0.2 0-0.5 0.2-0.7 0.2q-0.3 0-0.6 0c0 0.2-0.2 0.2-0.5 0.2q-0.3 0-0.6 0c-0.2 0.2-0.4 0.2-0.7 0.2 0 0-0.2 0-0.4 0q-0.3 0-0.7 0-0.3 0-0.6 0c-0.2 0.3-0.4 0.3-0.7 0.3 0 0-0.2 0-0.4 0h-38.6c-13.1 0-23.8-10.7-23.8-23.8z"/>
	<path id="&lt;Path&gt;" class="s3" d="m141.3 307c8.5 0 15.5-7 15.5-15.5 0-8.5-7-15.5-15.5-15.5-8.5 0-15.2 7-15.2 15.5 0 8.5 6.7 15.5 15.2 15.5z"/>
	<path id="&lt;Path&gt;" class="s4" d="m137.2 301.7h8.5v-20.5h-8.5z"/>
	<path id="&lt;Path&gt;" class="s3" d="m112.6 280.6c6.1 6.1 6.1 15.7 0 21.8-5.9 6.1-15.7 6.1-21.8 0-6.2-6.1-6.2-15.7 0-21.8 6.1-6.1 15.9-6.1 21.8 0z"/>
	<path id="&lt;Path&gt;" class="s4" d="m106 281.2l5.9 6.1-14.4 14.4-6.1-6.1z"/>
	<path id="&lt;Path&gt;" class="s2" d="m96 204.3c-14.4 8.9-22.7 43.6-2.2 50.3 26.4 8.8 135 8.8 161.3 0 20.8-6.7 10.9-42.3-2.1-50.3-16-9.8-142.4-9-157 0z"/>
	<path id="&lt;Path&gt;" class="s0" d="m101.7 256.6c32 6.1 112.9 6.1 145.4 0 4.1-8.3-2.2-21.4-9.8-25.3-12.9-6.1-113.8-5.4-125.4 0-8.5 4.2-14.4 17-10.2 25.3z"/>
	<path id="&lt;Path&gt;" class="s0" d="m96 204.3q-2.6 1.6-5.2 4.6c1 0.4 1.9 0.8 3 1 26.4 8.8 135 8.8 161.3 0 1.1-0.2 2.2-0.6 3.1-1-1.7-2-3.3-3.5-5.2-4.6 0 0 0-0.2-0.3-0.2-16.7-9.6-141.9-8.8-156.5 0.2z"/>
	<path id="&lt;Path&gt;" class="s5" d="m97.7 73.2c-6.7 9.6-4.1 116-5.9 119.5 1.1 1.3 2.4 2.4 3.8 3.5 12.8 10 46.2 15.1 79.3 15.1 33.1 0 66.5-5.1 79.6-15.1 1.3-1.1 2.4-2.2 3.5-3.5-1.8-3.5 3-106.8-5.7-119.5-4.6-6.5-41-29.6-77.4-30.5-36.4 0.9-70.6 21-77.2 30.5z"/>
	<path id="&lt;Path&gt;" class="s3" d="m223.1 71.5c12 0 21.8 9.8 21.8 21.8 0 12.2-9.8 22-21.8 22-12.2 0-22-9.8-22-22 0-12 9.8-21.8 22-21.8z"/>
	<path id="&lt;Path&gt;" class="s6" d="m115 85.5c-10.1 21.3-17.5 64.9-1.8 83 20.3 23.4 103.4 23.4 123.4 0 15.9-18.1 8.5-61.7-1.5-83-12.2-26.2-108.2-26.2-120.1 0z"/>
	<path id="&lt;Path&gt;" class="s7" d="m241.6 104.9c-1.7-7.4-4.1-14.2-6.5-19.4-2.6-5.7-9.2-10.1-17.9-13.3-9.2 2.6-16.1 11.1-16.1 21.1 0 12.2 9.8 22 22 22 7.8 0 14.8-4.1 18.5-10.4z"/>
	<path id="&lt;Path&gt;" class="s7" d="m115 85.5c-10.1 21.3-17.5 64.9-1.8 83 6.1 7.2 18.1 12 32.5 14.9v-114.7c-15 3-27 8.5-30.7 16.8z"/>
	<path id="&lt;Path&gt;" class="s8" d="m136.5 122.5c4 0 7 3.1 7 7 0 3.7-3 7-7 7-3.7 0-6.9-3.3-6.9-7 0-3.9 3.2-7 6.9-7z"/>
	<path id="&lt;Path&gt;" class="s8" d="m213.3 122.5c3.9 0 7 3.1 7 7 0 3.7-3.1 7-7 7-3.7 0-6.8-3.3-6.8-7 0-3.9 3.1-7 6.8-7z"/>
	<path id="&lt;Path&gt;" class="s8" d="m169 155.2h11.8c4.6 0 8.1 3.7 8.1 8.1 0 4.6-3.5 8.1-8.1 8.1h-11.8c-4.3 0-8-3.5-8-8.1 0-4.4 3.7-8.1 8-8.1z"/>
	<path id="&lt;Path&gt;" class="s1" d="m116 228.5c-10.9 5.6-17 27.5-1.7 31.6 19.6 5.4 100.7 5.4 120.3 0 15.3-4.1 8.1-26.6-1.5-31.6-12-6.1-106.4-5.5-117.1 0z"/>
	<path id="&lt;Path&gt;" class="s9" d="m202.4 252.5c3.3 0 5.9-2.7 5.9-5.9 0-3.3-2.6-6.1-5.9-6.1-3.3 0-6.1 2.8-6.1 6.1 0 3.2 2.8 5.9 6.1 5.9z"/>
	<path id="&lt;Path&gt;" class="s6" d="m174.3 252.5c3.4 0 6.1-2.7 6.1-5.9 0-3.3-2.7-6.1-6.1-6.1-3.3 0-5.9 2.8-5.9 6.1 0 3.2 2.6 5.9 5.9 5.9z"/>
	<path id="&lt;Path&gt;" class="s10" d="m146.3 252.5c3.3 0 6.2-2.7 6.2-5.9 0-3.3-2.9-6.1-6.2-6.1-3.2 0-6.1 2.8-6.1 6.1 0 3.2 2.9 5.9 6.1 5.9z"/>
	<path id="&lt;Path&gt;" class="s0" d="m60 253.1c3.3-1.9 7-3.9 9.4-4.6 4.8-1.1 9.4 3.5 11.1 7.7 1.5 2.4 3.3 7.2 2.8 9.6-0.4 1.9-2.8 3.5-5.2 3.5l-1.7-7.9-4.6-6.3v-0.2l-6.8 3.9 3.1 7.2 5.4 5.9c-1.3 1.7-3.7 3-5.6 2.4-2.2-1.1-5.5-5.3-6.6-7.7 0 0 0 0 0-0.2-0.9-1.1-1.7-2.8-2.2-4.6l-4.3 2.2 3 7.6 5.7 5.7c-1.3 1.8-3.9 3.1-5.9 2.4-2.2-0.9-5.2-5.2-6.5-7.4 0-0.2 0-0.2 0-0.2-2.4-3.7-4-10-0.2-13.5 1.7-1.8 5.4-3.7 9.1-5.5z"/>
	<path id="&lt;Path&gt;" class="s0" d="m66.3 242.7l16-18.8-9-6.8-13.3 17.9z"/>
	<path id="&lt;Path&gt;" class="s2" d="m66.3 242.7l4.4-5.3c-0.2-2.4-2.4-5.6-5.7-8.9l-5 6.5z"/>
	<path id="&lt;Path&gt;" class="s2" d="m83.3 201.9c-4.1 1.3-11.5 5.2-12.8 9.1-1.8 5.3 5.6 15.3 11.1 15.1 4.1-0.2 10.2-5.9 12.6-9.6 2.9-4.4-5.6-16.1-10.9-14.6z"/>
	<path id="&lt;Path&gt;" class="s1" d="m83.3 201.9c-4.1 1.3-11.5 5.2-12.8 9.1-0.9 2.7 0.6 6.4 2.8 9.6l18.5-13.7c-2.4-3.3-5.8-5.7-8.5-5z"/>
	<path id="&lt;Path&gt;" class="s2" d="m51.5 237.2c-2 3.9-4.1 12-2.2 15.7 2.6 4.8 15.1 6.1 18.6 2.2 2.8-3.3 2.6-11.6 1.5-15.7-1.1-5.3-15.5-7-17.9-2.2z"/>
	<path id="&lt;Path&gt;" class="s1" d="m51.5 237.2c-2 3.9-4.1 12-2.2 15.7 1.3 2.4 5 3.9 9 4.4l2.6-22.7c-3.9-0.5-8.1 0.2-9.4 2.6z"/>
	<path id="&lt;Path&gt;" class="s0" d="m288.7 253.1c-3.3-1.9-7-3.9-9.4-4.6-4.8-1.1-9.3 3.5-11.1 7.7h-0.2c-1.3 2.4-3 7.2-2.6 9.6 0.4 1.9 2.8 3.5 5.2 3.5l1.5-7.9 4.6-6.3 0.2-0.2 6.6 3.9-2.8 7.2-5.7 5.9c1.5 1.7 3.9 3 5.9 2.4 2.1-1.1 5.2-5.3 6.5-7.7 0 0 0 0 0-0.2 0.9-1.1 1.5-2.8 2-4.6l4.3 2.2-2.8 7.6-5.7 5.7c1.3 1.8 4 3.1 5.7 2.4 2.4-0.9 5.4-5.2 6.5-7.4 0.3-0.2 0.3-0.2 0.3-0.2 2.4-3.7 3.7-10 0.2-13.5-2-1.8-5.5-3.7-9.2-5.5z"/>
	<path id="&lt;Path&gt;" class="s0" d="m282.4 242.7l-15.9-18.8 8.9-6.8 13.3 17.9z"/>
	<path id="&lt;Path&gt;" class="s2" d="m282.4 242.7l-4.4-5.3c0.3-2.4 2.4-5.6 5.7-8.9l5 6.5z"/>
	<path id="&lt;Path&gt;" class="s2" d="m265.2 201.9c4.3 1.3 11.5 5.2 13.1 9.1 1.7 5.3-5.7 15.3-11.2 15.1-4.1-0.2-10.2-5.9-12.6-9.6-2.8-4.4 5.7-16.1 10.7-14.6z"/>
	<path id="&lt;Path&gt;" class="s1" d="m265.2 201.9c4.3 1.3 11.5 5.2 13.1 9.1 0.8 2.7-0.7 6.4-2.9 9.6l-18.5-13.7c2.4-3.3 5.9-5.7 8.3-5z"/>
	<path id="&lt;Path&gt;" class="s2" d="m297.2 237.2c2 3.9 3.9 12 2 15.7-2.4 4.8-14.8 6.1-18.3 2.2-2.9-3.3-2.6-11.6-1.8-15.7 1.3-5.3 15.7-7 18.1-2.2z"/>
	<path id="&lt;Path&gt;" class="s1" d="m297.2 237.2c2 3.9 3.9 12 2 15.7-1.1 2.4-4.8 3.9-8.7 4.4l-2.9-22.7c4.2-0.5 8.3 0.2 9.6 2.6z"/>
</svg>