<svg version="1.2" xmlns="http://www.w3.org/2000/svg" viewBox="0 0 350 350" width="350" height="350">
	<title>New Project</title>
	<style>
		.s0 { fill: #666666 } 
		.s1 { fill: #808080 } 
		.s2 { fill: #999999 } 
		.s3 { fill: #b3b3b3 } 
		.s4 { fill: #ccccff } 
		.s5 { fill: #6699ff } 
		.s6 { fill: #1a1a1a } 
		.s7 { fill: #4d4d4d } 
		.s8 { fill: #ff592e } 
		.s9 { fill: #cccccc } 
	</style>
	<path id="&lt;Path&gt;" class="s0" d="m145.9 253.8l-4.8 48.7 16.8 0.8 1.3-45.8z"/>
	<path id="&lt;Path&gt;" class="s1" d="m158.8 273.2c3.3 6.8 7 20.8 4.1 26.6-3.4 7.7-22.2 8.1-27.9 0.7-4.3-5.7-4.5-19.8-3.5-26.6 1.8-8.5 23.4-9.2 27.3-0.7z"/>
	<path id="&lt;Path&gt;" class="s2" d="m158.8 273.2c3.3 6.8 7 20.8 4.1 26.6-1.7 3.7-7.2 5.9-13 5.9l-5.5-38.6c6.1 0 12.4 1.8 14.4 6.1z"/>
	<path id="&lt;Path&gt;" class="s2" d="m121.1 292.6c-2.9 4-5.9 12.3-3.5 16.4 20.5 0 31.6 0 48.8 0 2.2-4.1-0.6-12.4-3.7-16.4-3.7-5.4-37.7-5.4-41.6 0z"/>
	<path id="&lt;Path&gt;" class="s0" d="m216.8 253.8l4.8 48.7-16.8 0.8-1.3-45.8z"/>
	<path id="&lt;Path&gt;" class="s1" d="m203.9 273.2c-3.2 6.8-6.9 20.8-4.1 26.6 3.5 7.7 22.2 8.1 27.9 0.7 4.4-5.7 4.6-19.8 3.3-26.6-1.6-8.5-23.1-9.2-27.1-0.7z"/>
	<path id="&lt;Path&gt;" class="s2" d="m203.9 273.2c-3.2 6.8-6.9 20.8-4.1 26.6 1.7 3.7 7.2 5.9 13.1 5.9l5.4-38.6c-6.1 0-12.4 1.8-14.4 6.1z"/>
	<path id="&lt;Path&gt;" class="s2" d="m241.6 292.6c2.9 4 5.9 12.3 3.5 16.4-20.5 0-31.6 0-48.8 0-2.2-4.1 0.7-12.4 3.7-16.4 3.7-5.4 37.7-5.4 41.6 0z"/>
	<path id="&lt;Path&gt;" class="s2" d="m120 181c-10.3 17.5-17.9 53-1.8 67.8 20.8 19 105.6 19 126.3 0 16.1-14.8 8.5-50.3-1.8-67.8-12.4-21.1-110.3-21.1-122.7 0z"/>
	<path id="&lt;Path&gt;" class="s1" d="m120 181c-1.8 2.9-3.3 5.9-4.6 9.4 0.9 1.3 1.8 2.2 2.8 3.3 20.8 18.9 105.6 18.9 126.3 0 1.1-1.1 1.9-2 2.8-3.3-1.5-3.5-3-6.5-4.6-9.4-12.4-21.1-110.3-21.1-122.7 0z"/>
	<path id="&lt;Path&gt;" class="s0" d="m168.2 173.4c-2.2 4.8-3.7 14.2-0.2 18.1 4.3 5.2 22.4 5.2 26.8 0 3.5-3.9 1.7-13.3-0.5-18.1-2.6-5.7-23.5-5.7-26.1 0z"/>
	<path id="&lt;Path&gt;" class="s2" d="m111.3 64.8c-11.8 25.1-20.3 76.1-2 97.3 23.6 27 120.6 27 144.1 0 18.3-21.2 9.8-72.2-1.9-97.3-14.2-30.3-126.1-30.3-140.2 0z"/>
	<path id="&lt;Path&gt;" class="s3" d="m111.3 64.8c-11.8 25.1-20.3 76.1-2 97.3 7.2 8.2 21.2 13.9 37.9 17.2v-134.1c-17.6 3.7-31.6 10.2-35.9 19.6z"/>
	<path id="&lt;Path&gt;" class="s4" d="m181.3 87.7l63.2-3.9v47.5l-37.3 20.5-0.2 33.6h-51.3l-0.4-33.6-37.1-20.5v-47.5z"/>
	<path id="&lt;Path&gt;" class="s5" d="m169 185.4h-7.4v-8.3c0-2.2 1.8-3.7 3.7-3.7 2 0 3.7 1.5 3.7 3.7z"/>
	<path id="&lt;Path&gt;" class="s5" d="m185 185.4h-7.4v-8.3c0-2.2 1.7-3.7 3.7-3.7 2.1 0 3.7 1.5 3.7 3.7z"/>
	<path id="&lt;Path&gt;" class="s5" d="m201.1 185.4h-7.4v-8.3c0-2.2 1.5-3.7 3.7-3.7 2 0 3.7 1.5 3.7 3.7z"/>
	<path id="&lt;Path&gt;" class="s6" d="m147.7 109.3c3.5 0 6.1 2.6 6.1 6.1 0 3.3-2.6 5.9-6.1 5.9-3.3 0-5.9-2.6-5.9-5.9 0-3.5 2.6-6.1 5.9-6.1z"/>
	<path id="&lt;Path&gt;" class="s6" d="m214.8 109.3c3.5 0 6.1 2.6 6.1 6.1 0 3.3-2.6 5.9-6.1 5.9-3.2 0-5.9-2.6-5.9-5.9 0-3.5 2.7-6.1 5.9-6.1z"/>
	<path id="&lt;Path&gt;" class="s0" d="m105.2 192.4l-20.3 44.4 15.5 6.4 16.1-43z"/>
	<path id="&lt;Path&gt;" class="s7" d="m105.2 192.4l-4.2 8.9c1.3 3 5.7 6.5 11.4 10l4.1-11.1z"/>
	<path id="&lt;Path&gt;" class="s2" d="m76 227.5c-0.9 8.2 0 24.4 4.7 30 6.4 7.2 26 2.9 29.3-6.5 2.6-7.4-1.8-22.7-5.5-29.9-4.6-8.7-27.2-3.7-28.5 6.4z"/>
	<path id="&lt;Path&gt;" class="s3" d="m76 227.5c-0.9 8.2 0 24.4 4.7 30 3.1 3.5 9 4.2 14.9 3.1l-4.8-43.6c-7 1.1-14 5.2-14.8 10.5z"/>
	<path id="&lt;Path&gt;" class="s2" d="m109.1 182.8c-3.5 2.8-8.5 9.3-8.3 13.5 0.4 5.4 11.1 11.8 16.1 9.6 3.7-1.8 7-9.6 7.7-14 1.1-5-11.4-12.4-15.5-9.1z"/>
	<path id="&lt;Path&gt;" class="s3" d="m109.1 182.8c-3.5 2.8-8.5 9.3-8.3 13.5 0.2 2.8 3.1 5.7 6.3 7.6l11.6-19.6c-3.5-2.2-7.6-3.1-9.6-1.5z"/>
	<path id="&lt;Path&gt;" class="s8" d="m94.3 134.6c3 0 5.4 2.6 5.4 5.4v128.7c0 3-2.4 5.4-5.4 5.4-3.1 0-5.5-2.4-5.5-5.4v-128.7c0-2.8 2.4-5.4 5.5-5.4z"/>
	<path id="&lt;Path&gt;" class="s9" d="m94.3 228.5c4.1 0 7.4 3.3 7.4 7.5v30.7c0 4.1-3.3 7.4-7.4 7.4-4.2 0-7.4-3.3-7.4-7.4v-30.7c0-4.2 3.2-7.5 7.4-7.5z"/>
	<path id="&lt;Path&gt;" class="s0" d="m103.4 235.7c-1.9-1.5-7.2-1.9-9.8-1.9 0 0.2-0.2 0.2-0.2 0.2-2.6-0.2-6.8 1.1-8.7 2.2-0.5 0.2-0.9 0.6-1.1 1.1-0.9 0.6-1.5 1.9-2 3.2-0.4 2.4-0.2 6.6 0 10.5 0 3.9 0 8.3 0.9 10.5q0.6 2.3 2 3.2c0.4 0.5 0.6 0.7 1 0.9 2.2 1.1 6.4 2.2 9 1.8l0.2 0.2c2.6 0 7.9-0.9 9.6-2.6 2.4-2.2 1.5-27.3-0.9-29.3z"/>
	<path id="&lt;Path&gt;" class="s0" d="m257.6 192.4l20.2 44.4-15.4 6.4-16.2-43z"/>
	<path id="&lt;Path&gt;" class="s7" d="m257.6 192.4l3.9 8.9c-1.3 3-5.5 6.5-11.1 10l-4.2-11.1z"/>
	<path id="&lt;Path&gt;" class="s2" d="m286.6 227.5c1.1 8.2 0.2 24.4-4.8 30-6.1 7.2-25.8 2.9-29.3-6.5-2.3-7.4 2-22.7 5.7-29.9 4.6-8.7 27.3-3.7 28.4 6.4z"/>
	<path id="&lt;Path&gt;" class="s3" d="m286.6 227.5c1.1 8.2 0.2 24.4-4.8 30-2.9 3.5-8.8 4.2-14.6 3.1l4.8-43.6c6.9 1.1 13.9 5.2 14.6 10.5z"/>
	<path id="&lt;Path&gt;" class="s2" d="m253.6 182.8c3.3 2.8 8.5 9.3 8.3 13.5-0.4 5.4-11.1 11.8-16.1 9.6-3.7-1.8-7-9.6-7.9-14-0.8-5 11.6-12.4 15.7-9.1z"/>
	<path id="&lt;Path&gt;" class="s3" d="m253.6 182.8c3.3 2.8 8.5 9.3 8.3 13.5-0.2 2.8-3 5.7-6.3 7.6l-11.8-19.6c3.5-2.2 7.7-3.1 9.8-1.5z"/>
	<path id="&lt;Path&gt;" class="s0" d="m258 242.3c1.7-1.5 7-2.2 9.6-2 0.2 0 0.2 0 0.2 0 2.6 0 6.8 1.3 9 2.4 0.4 0.2 0.6 0.5 0.8 0.9 0.9 0.9 1.5 2 2 3.5 0.4 2.4 0.4 6.5 0 10.4 0.2 4 0 8.1-0.7 10.5-0.4 1.3-1.3 2.4-2.1 3.3-0.3 0.4-0.7 0.6-1.1 0.9-2.2 0.8-6.4 1.9-9 1.7 0 0 0 0-0.2 0-2.6 0-7.6-0.9-9.6-2.4-2.4-2.2-1.5-27.3 1.1-29.2z"/>
	<path id="&lt;Path&gt;" class="s1" d="m157.3 215.9c2.2 0 3.7 1.7 3.7 3.7v25.5c0 2-1.5 3.7-3.7 3.7-2 0-3.7-1.7-3.7-3.7v-25.5c0-2 1.7-3.7 3.7-3.7z"/>
	<path id="&lt;Path&gt;" class="s1" d="m173.4 215.9c2 0 3.7 1.7 3.7 3.7v25.5c0 2-1.7 3.7-3.7 3.7-2.2 0-3.7-1.7-3.7-3.7v-25.5c0-2 1.5-3.7 3.7-3.7z"/>
	<path id="&lt;Path&gt;" class="s1" d="m189.3 215.9c2 0 3.7 1.7 3.7 3.7v25.5c0 2-1.7 3.7-3.7 3.7-1.9 0-3.7-1.7-3.7-3.7v-25.5c0-2 1.8-3.7 3.7-3.7z"/>
	<path id="&lt;Path&gt;" class="s1" d="m205.2 215.9c2.2 0 3.7 1.7 3.7 3.7v25.5c0 2-1.5 3.7-3.7 3.7-1.9 0-3.7-1.7-3.7-3.7v-25.5c0-2 1.8-3.7 3.7-3.7z"/>
</svg>