<svg version="1.2" xmlns="http://www.w3.org/2000/svg" viewBox="0 0 350 350" width="350" height="350">
	<title>New Project</title>
	<style>
		.s0 { fill: #4d4d4d } 
		.s1 { fill: #808080 } 
		.s2 { fill: #243257 } 
		.s3 { fill: #1f4a8e } 
		.s4 { fill: #ffffff } 
		.s5 { fill: #b3b3b3 } 
		.s6 { fill: #de8e35 } 
		.s7 { fill: #6699ff } 
		.s8 { fill: #f3a133 } 
		.s9 { fill: #f6bb6a } 
		.s10 { fill: #e08f24 } 
	</style>
	<path id="&lt;Path&gt;" class="s0" d="m246.9 213.6l41.6-25.7-9.6-13.9-37 26.8z"/>
	<path id="&lt;Path&gt;" class="s1" d="m246.9 213.6l14.1-8.7c0.7-3.5-1.3-8.9-4.1-15l-15 10.9z"/>
	<path id="&lt;Path&gt;" class="s2" d="m295.9 190.5c3.3-7.4 7-23.1 4-30.1-3.8-8.7-24-10-29.9-1.9-4.6 6.3-4.6 22.2-3.3 30.1 2 9.6 25.1 11.3 29.2 1.9z"/>
	<path id="&lt;Path&gt;" class="s3" d="m295.9 190.5c3.3-7.4 7-23.1 4-30.1-1.8-4.1-7.2-6.5-13.1-7.2l-7.9 43.2c7 1.1 14.8-0.9 17-5.9z"/>
	<path id="&lt;Path&gt;" class="s1" d="m281.3 145.4c0-1.3 0-2.6-0.2-3.5 1.3-2.4 2.4-5 2.2-6.7-0.2-3.1-5.7-5.3-8.1-3.3-1.9 1.7-3.5 6.7-3.7 9.4 0 0 0 0 0 0.2-0.6 2.4 0 6.7 0.7 8.9 0 0.5 0.2 0.9 0.6 1.1 0.7 1.1 1.5 2 3.1 2.6 2.2 1.1 6.3 1.8 10.2 2.2 3.7 0.9 7.9 1.5 10.3 1.3 1.5-0.2 2.8-0.9 3.7-1.5 0.4-0.2 0.8-0.5 1.1-0.9 1.3-2 3.2-5.9 3.5-8.5 0.4-2.6 0.6-7.8-0.7-10-1.5-2.6-7.4-2.4-8.7 0.4-0.7 1.5-0.5 4.6 0 7-0.5 1.1-0.9 2.2-1.3 3.5-2-0.5-4.2-0.9-6.4-1.1-2.1-0.4-4.3-0.9-6.3-1.1z"/>
	<path id="&lt;Path&gt;" class="s1" d="m95.3 202.7l-31.8 37.3 13.1 10.3 27.5-36.7z"/>
	<path id="&lt;Path&gt;" class="s0" d="m95.3 202.7l-10.6 12.7c0.2 3.5 3.7 8.3 8.3 13.1l11.1-14.9z"/>
	<path id="&lt;Path&gt;" class="s2" d="m55.7 239.4c-1.1 8.3 0.2 24.4 5 30.1 6.3 7.1 25.9 2.4 29.2-7.2 2.4-7.2-2.2-22.5-6.1-29.7-4.6-8.7-27-3.3-28.1 6.8z"/>
	<path id="&lt;Path&gt;" class="s3" d="m55.7 239.4c-1.1 8.3 0.2 24.4 5 30.1 3 3.2 8.9 4.1 14.8 2.8l-5.4-43.6c-7 1.3-14 5.2-14.4 10.7z"/>
	<path id="&lt;Path&gt;" class="s1" d="m83.1 278.2c0.5 1.3 0.7 2.4 1.3 3.5-0.6 2.4-0.8 5.4-0.2 6.9 1.1 2.9 7 3.3 8.8 0.7 1.3-2.2 1.3-7.4 0.6-10v-0.3c0-2.6-2-6.5-3.3-8.5-0.2-0.4-0.6-0.6-1.1-0.8-0.8-0.7-1.9-1.3-3.4-1.6-2.4-0.2-6.6 0.5-10.5 1.1-3.9 0.5-8.1 1.1-10.3 2-1.5 0.7-2.4 1.5-3 2.4-0.4 0.4-0.7 0.7-0.9 1.1-0.6 2.4-1.3 6.7-0.6 9.1v0.3c0.2 2.6 1.7 7.6 3.5 9.3 2.4 2 7.8 0 8.2-3 0.3-1.8-0.8-4.6-2.1-6.8 0.2-1.1 0.2-2.4 0.2-3.5 1.9-0.2 4.3-0.6 6.3-1.1 2.2-0.2 4.6-0.4 6.5-0.8z"/>
	<path id="&lt;Path&gt;" class="s1" d="m137.2 266.8l-4.8 48.7 16.8 0.8 1.3-45.8z"/>
	<path id="&lt;Path&gt;" class="s0" d="m137.2 266.8l-0.9 9.6c2.2 2.6 7.5 4.6 14 5.9l0.2-11.8z"/>
	<path id="&lt;Path&gt;" class="s2" d="m109.1 305.4c-2.8 4.2-5.9 12.2-3.5 16.4 20.5 0 31.6 0 48.6 0 2.4-4.2-0.6-12.2-3.5-16.4-3.7-5.2-37.9-5.2-41.6 0z"/>
	<path id="&lt;Path&gt;" class="s2" d="m124.6 294.1c-0.9 6.5 0 18.7 4.5 23.1 5.9 5.5 24 1.5 27.1-5.9 2.2-5.9-2-17.4-5.5-22.9-4.3-6.7-25-1.9-26.1 5.7z"/>
	<path id="&lt;Path&gt;" class="s3" d="m124.6 294.1c-0.9 6.5 0 18.7 4.5 23.1 3.1 2.6 9 3.1 14.7 1.7l-7.5-33.1c-5.8 1.3-11.3 4.4-11.7 8.3z"/>
	<path id="&lt;Path&gt;" class="s1" d="m209.6 266.8l4.6 48.7-16.8 0.8-1.3-45.8z"/>
	<path id="&lt;Path&gt;" class="s0" d="m209.6 266.8l0.9 9.6c-2.4 2.6-7.4 4.6-14 5.9l-0.4-11.8z"/>
	<path id="&lt;Path&gt;" class="s2" d="m237.7 305.4c2.9 4.2 5.9 12.2 3.5 16.4-20.5 0-31.6 0-48.8 0-2.2-4.2 0.6-12.2 3.7-16.4 3.7-5.2 37.7-5.2 41.6 0z"/>
	<path id="&lt;Path&gt;" class="s2" d="m222.2 294.1c0.9 6.5-0.2 18.7-4.8 23.1-5.6 5.5-23.7 1.5-26.8-5.9-2.4-5.9 2-17.4 5.5-22.9 4.1-6.7 25-1.9 26.1 5.7z"/>
	<path id="&lt;Path&gt;" class="s3" d="m222.2 294.1c0.9 6.5-0.2 18.7-4.8 23.1-2.8 2.6-8.7 3.1-14.3 1.7l7.1-33.1c5.9 1.3 11.6 4.4 12 8.3z"/>
	<path id="&lt;Path&gt;" class="s4" d="m203.5 319.8c4.8 0 8.9-4.1 8.9-8.9 0-5-4.1-9-8.9-9-5 0-9 4-9 9 0 4.8 4 8.9 9 8.9z"/>
	<path id="&lt;Path&gt;" class="s5" d="m200.9 316.8h5v-12h-5z"/>
	<path id="&lt;Path&gt;" class="s4" d="m143.3 319.6c5 0 9-4.1 9-9.2 0-4.8-4-8.9-9-8.9-5 0-8.9 4.1-8.9 8.9 0 5.1 3.9 9.2 8.9 9.2z"/>
	<path id="&lt;Path&gt;" class="s5" d="m140.9 316.5h4.8v-11.9h-4.8z"/>
	<path id="&lt;Path&gt;" class="s6" d="m132.8 272.9c-4.3-10-6.1-23.9 2-30.5 12.7-10.2 64.5-10.2 77.2 0 8.1 6.6 6.3 20.5 2 30.5-18.8 5.9-62.4 5.9-81.2 0z"/>
	<path id="&lt;Path&gt;" class="s3" d="m103.2 186.6c-11.6 17.4-20.3 53-2 67.8 23.6 19 120.6 19 144.1 0 18.6-14.8 9.9-50.4-1.9-67.8-14.2-21.1-126-21.1-140.2 0z"/>
	<path id="&lt;Path&gt;" class="s2" d="m103.2 186.6c-1.7 2.8-3.5 6.1-5 9.6 0.9 1.1 1.9 2 3 3.1 23.6 18.9 120.6 18.9 144.1 0 1.4-1.1 2.4-2 3.3-3.1-1.5-3.5-3.3-6.8-5.2-9.6-14.2-21.1-126-21.1-140.2 0z"/>
	<path id="&lt;Path&gt;" class="s7" d="m145.9 228.2c2.2 0 4.2 1.8 4.2 4v22.6c0 2.4-2 4.2-4.2 4.2-2.1 0-4.1-1.8-4.1-4.2v-22.6c0-2.2 2-4 4.1-4z"/>
	<path id="&lt;Path&gt;" class="s7" d="m164.2 228.2c2.2 0 4.2 1.8 4.2 4v22.6c0 2.4-2 4.2-4.2 4.2-2.1 0-4.1-1.8-4.1-4.2v-22.6c0-2.2 2-4 4.1-4z"/>
	<path id="&lt;Path&gt;" class="s7" d="m182.6 228.2c2.1 0 4.1 1.8 4.1 4v22.6c0 2.4-2 4.2-4.1 4.2-2.2 0-4.2-1.8-4.2-4.2v-22.6c0-2.2 2-4 4.2-4z"/>
	<path id="&lt;Path&gt;" class="s7" d="m200.9 228.2c2.2 0 4.1 1.8 4.1 4v22.6c0 2.4-1.9 4.2-4.1 4.2-2.2 0-4.2-1.8-4.2-4.2v-22.6c0-2.2 2-4 4.2-4z"/>
	<path id="&lt;Path&gt;" class="s6" d="m160.3 179c-2.2 4.8-3.9 14.1-0.4 18.1 4.3 5.2 22.4 5.2 27 0 3.3-4 1.8-13.3-0.4-18.1-2.6-5.7-23.6-5.7-26.2 0z"/>
	<path id="&lt;Path&gt;" class="s8" d="m103.2 70.4c-11.6 25.1-20.3 76.1-2 97.2 23.6 27.1 120.6 27.1 144.1 0 18.6-21.1 9.9-72.1-1.9-97.2-14.2-30.3-126-30.3-140.2 0z"/>
	<path id="&lt;Path&gt;" class="s9" d="m103.2 70.4c-11.6 25.1-20.3 76.1-2 97.2 7.2 8.3 21.4 14 38 17.3v-134.1c-17.5 3.7-31.4 10.2-36 19.6z"/>
	<path id="&lt;Path&gt;" class="s3" d="m248.2 105.9l8.3-1.3c4.5-0.4 8.7 2.6 9.3 7.2l2.7 19c0.6 4.6-2.7 8.7-7.2 9.4l-8.1 1.1z"/>
	<path id="&lt;Path&gt;" class="s3" d="m98.6 105.9l-8.3-1.3c-4.5-0.4-8.7 2.6-9.3 7.2l-2.7 19c-0.6 4.6 2.7 8.7 7 9.4l8.3 1.1z"/>
	<path id="&lt;Path&gt;" class="s10" d="m125.7 142.1c4.8 0 8.5 3.7 8.5 8.3 0 4.8-3.7 8.5-8.5 8.5-4.6 0-8.3-3.7-8.3-8.5 0-4.6 3.7-8.3 8.3-8.3z"/>
	<path id="&lt;Path&gt;" class="s10" d="m220.9 142.1c4.8 0 8.5 3.7 8.5 8.3 0 4.8-3.7 8.5-8.5 8.5-4.5 0-8.3-3.7-8.3-8.5 0-4.6 3.8-8.3 8.3-8.3z"/>
	<path id="&lt;Path&gt;" class="s4" d="m171.4 151.5h4c4.5 0 8.5 3.9 8.5 8.5 0 4.6-4 8.5-8.5 8.5h-4c-4.8 0-8.5-3.9-8.5-8.5 0-4.6 3.7-8.5 8.5-8.5z"/>
	<path id="&lt;Path&gt;" class="s3" d="m121.7 114.9h27.3c3.3 0 6.1 2.6 6.1 6.1 0 3.3-2.8 5.9-6.1 5.9h-27.3c-3.5 0-6.1-2.6-6.1-5.9 0-3.5 2.6-6.1 6.1-6.1z"/>
	<path id="&lt;Path&gt;" class="s3" d="m197.8 114.9h27.3c3.2 0 6.1 2.6 6.1 6.1 0 3.3-2.9 5.9-6.1 5.9h-27.3c-3.5 0-6.1-2.6-6.1-5.9 0-3.5 2.6-6.1 6.1-6.1z"/>
	<path id="&lt;Path&gt;" class="s4" d="m278.1 203.2c4.7 0 8.9-3.9 8.9-9 0-4.8-4.2-8.9-8.9-8.9-5.1 0-9 4.1-9 8.9 0 5.1 3.9 9 9 9z"/>
	<path id="&lt;Path&gt;" class="s5" d="m275.4 200.3h5.1v-11.9h-5.1z"/>
	<path id="&lt;Path&gt;" class="s4" d="m71.4 237.4c5 0 9.1-4.1 9.1-9.2 0-4.7-4.1-8.9-9.1-8.9-4.8 0-9 4.2-9 8.9 0 5.1 4.2 9.2 9 9.2z"/>
	<path id="&lt;Path&gt;" class="s5" d="m69 234.4h5v-12h-5z"/>
</svg>