<svg version="1.2" xmlns="http://www.w3.org/2000/svg" viewBox="0 0 350 350" width="350" height="350">
	<title>New Project</title>
	<style>
		.s0 { fill: #452b2b } 
		.s1 { fill: #876a6b } 
		.s2 { fill: #5b3334 } 
		.s3 { fill: #333333 } 
		.s4 { fill: #ffcc00 } 
		.s5 { fill: #e6e6e6 } 
		.s6 { fill: #ffe447 } 
	</style>
	<path id="&lt;Path&gt;" class="s0" d="m153.4 253.6l-4.8 48.6 16.8 0.9 1.3-45.8z"/>
	<path id="&lt;Path&gt;" class="s1" d="m166.3 273c3.3 6.8 7 20.7 4.1 26.6-3.4 7.6-22.2 8.1-27.9 0.6-4.3-5.6-4.5-19.6-3.2-26.6 1.5-8.5 23.1-8.9 27-0.6z"/>
	<path id="&lt;Path&gt;" class="s2" d="m166.3 273c3.3 6.8 7 20.7 4.1 26.6-1.7 3.7-7.2 5.9-13 5.9l-5.5-38.6c6.1 0 12.4 2 14.4 6.1z"/>
	<path id="&lt;Path&gt;" class="s2" d="m128.6 292.4c-2.9 4.1-5.9 12.2-3.5 16.3 20.5 0 31.6 0 48.8 0 2.2-4.1-0.6-12.2-3.7-16.3-3.7-5.5-37.7-5.5-41.6 0z"/>
	<path id="&lt;Path&gt;" class="s0" d="m204.9 253.6l4.8 48.6-16.8 0.9-1.3-45.8z"/>
	<path id="&lt;Path&gt;" class="s1" d="m192 273c-3.2 6.8-7 20.7-4.3 26.6 3.7 7.6 22.4 8.1 28.1 0.6 4.3-5.6 4.6-19.6 3.3-26.6-1.6-8.5-23.2-8.9-27.1-0.6z"/>
	<path id="&lt;Path&gt;" class="s2" d="m192 273c-3.2 6.8-7 20.7-4.3 26.6 1.9 3.7 7.4 5.9 13.3 5.9l5.4-38.6c-6.1 0-12.4 2-14.4 6.1z"/>
	<path id="&lt;Path&gt;" class="s2" d="m229.7 292.4c2.9 4.1 5.9 12.2 3.5 16.3-20.5 0-31.6 0-48.8 0-2.2-4.1 0.6-12.2 3.5-16.3 3.9-5.5 37.9-5.5 41.8 0z"/>
	<path id="&lt;Path&gt;" class="s0" d="m111.1 209.3l-20.2 44.5 15.7 6.1 16.1-42.7z"/>
	<path id="&lt;Path&gt;" class="s3" d="m111.1 209.3l-3.9 8.8c1.3 3.2 5.5 6.7 11.4 10l4.1-10.9z"/>
	<path id="&lt;Path&gt;" class="s2" d="m85.6 256c-0.8 6.7-0.2 19.6 3.7 24 5 5.9 20.7 2.4 23.6-5.3 1.9-5.8-1.5-18.1-4.6-23.7-3.7-7-21.8-2.9-22.7 5z"/>
	<path id="&lt;Path&gt;" class="s1" d="m85.6 256c-0.8 6.7-0.2 19.6 3.7 24 2.4 2.8 7.2 3.5 11.8 2.6l-3.9-34.9c-5.5 0.9-11.1 3.9-11.6 8.3z"/>
	<path id="&lt;Path&gt;" class="s4" d="m109.2 285.9c0.4 1.3 0.6 2.4 1.3 3.4-0.7 2.4-1.1 5.5-0.5 7 1.4 3.1 7.2 3.5 8.8 0.7 1.5-2 1.5-7.2 1.1-9.8-0.3 0-0.3-0.3-0.3-0.3 0-2.6-1.7-6.5-3-8.5-0.4-0.4-0.7-0.6-1.1-0.8-0.9-0.9-2.2-1.3-3.5-1.6-2.6-0.4-6.7 0.3-10.5 0.9-3.9 0.2-8 0.9-10.4 1.8-1.3 0.6-2.4 1.5-3.1 2.4-0.2 0.4-0.4 0.6-0.6 1.1-0.9 2.3-1.6 6.5-0.9 9.1v0.2c0.2 2.6 1.5 7.7 3.3 9.4 2.4 2.2 8 0.2 8.3-2.8 0.2-1.8-0.9-4.6-2-7 0.2-0.9 0.2-2.2 0.2-3.5 2.2-0.2 4.4-0.4 6.6-0.9 1.9-0.2 4.3-0.4 6.3-0.8z"/>
	<path id="&lt;Path&gt;" class="s0" d="m247.2 209.3l20.3 44.5-15.7 6.1-16.2-42.7z"/>
	<path id="&lt;Path&gt;" class="s3" d="m247.2 209.3l3.9 8.8c-1.3 3.2-5.4 6.7-11.3 10l-4.2-10.9z"/>
	<path id="&lt;Path&gt;" class="s2" d="m272.7 256c0.9 6.7 0 19.6-3.7 24-5 5.9-20.7 2.4-23.6-5.3-1.9-5.8 1.6-18.1 4.6-23.7 3.5-7 21.8-2.9 22.7 5z"/>
	<path id="&lt;Path&gt;" class="s1" d="m272.7 256c0.9 6.7 0 19.6-3.7 24-2.4 2.8-7.2 3.5-11.8 2.6l3.7-34.9c5.7 0.9 11.4 3.9 11.8 8.3z"/>
	<path id="&lt;Path&gt;" class="s4" d="m249.1 285.9c-0.4 1.3-0.8 2.4-1.3 3.4 0.7 2.4 0.9 5.5 0.5 7-1.3 3.1-7.2 3.5-8.7 0.7-1.6-2-1.6-7.2-1.1-9.8l0.2-0.3c0-2.6 1.7-6.5 3-8.5 0.3-0.4 0.7-0.6 1.1-0.8 0.9-0.9 2.2-1.3 3.5-1.6 2.6-0.4 6.8 0.3 10.5 0.9 3.9 0.2 8 0.9 10.4 1.8 1.3 0.6 2.4 1.5 3.1 2.4 0.2 0.4 0.4 0.6 0.6 1.1 0.7 2.3 1.6 6.5 0.9 9.1v0.2c-0.2 2.6-1.5 7.7-3.3 9.4-2.3 2.2-8 0.2-8.2-2.8-0.3-1.8 0.8-4.6 1.9-7-0.2-0.9-0.2-2.2-0.2-3.5-2.2-0.2-4.4-0.4-6.5-0.9-2-0.2-4.4-0.4-6.4-0.8z"/>
	<path id="&lt;Path&gt;" class="s2" d="m117.7 180.8c-10.3 17.6-17.7 52.9-1.5 67.8 20.4 18.9 105.5 18.9 126 0 16.1-14.9 8.5-50.2-1.6-67.8-12.6-21.2-110.5-21.2-122.9 0z"/>
	<path id="&lt;Path&gt;" class="s0" d="m117.7 180.8c-1.5 2.8-3.1 6.1-4.4 9.6 0.7 1.1 1.8 2.1 2.9 3 20.4 19 105.5 19 126 0 1.1-0.9 1.9-1.9 2.8-3-1.3-3.5-2.8-6.8-4.4-9.6-12.6-21.2-110.5-21.2-122.9 0z"/>
	<path id="&lt;Path&gt;" class="s4" d="m166.1 173.1c-2.2 4.8-3.7 14.2-0.5 18.1 4.4 5.3 22.7 5.3 27.1 0 3.2-3.9 1.7-13.3-0.5-18.1-2.6-5.6-23.5-5.6-26.1 0z"/>
	<path id="&lt;Path&gt;" class="s2" d="m109 64.8c-11.6 24.8-20.3 75.9-2 97 23.8 27 120.6 27 144.1 0 18.5-21.1 9.8-72.2-1.7-97-14.4-30.5-126.1-30.5-140.4 0z"/>
	<path id="&lt;Path&gt;" class="s1" d="m109 64.8c-11.6 24.8-20.3 75.9-2 97 7.2 8.3 21.4 14 37.9 17.2v-133.8c-17.4 3.4-31.4 10-35.9 19.6z"/>
	<path id="&lt;Path&gt;" class="s5" d="m145.6 109c3.3 0 6.1 2.7 6.1 6.1 0 3.3-2.8 5.9-6.1 5.9-3.3 0-6.1-2.6-6.1-5.9 0-3.4 2.8-6.1 6.1-6.1z"/>
	<path id="&lt;Path&gt;" class="s5" d="m212.7 109c3.3 0 6.1 2.7 6.1 6.1 0 3.3-2.8 5.9-6.1 5.9-3.2 0-6.1-2.6-6.1-5.9 0-3.4 2.9-6.1 6.1-6.1z"/>
	<path id="&lt;Path&gt;" class="s0" d="m131.4 136.3c4.8 0 8.5 3.7 8.5 8.5 0 4.6-3.7 8.3-8.5 8.3-4.6 0-8.3-3.7-8.3-8.3 0-4.8 3.7-8.5 8.3-8.5z"/>
	<path id="&lt;Path&gt;" class="s0" d="m226.7 136.3c4.8 0 8.5 3.7 8.5 8.5 0 4.6-3.7 8.3-8.5 8.3-4.6 0-8.3-3.7-8.3-8.3 0-4.8 3.7-8.5 8.3-8.5z"/>
	<path id="&lt;Path&gt;" class="s6" d="m257.4 178.6c6.8 5.4 6.6 14.8-0.2 20.5l-65.4 53.4c-7 5.7-18.3 5.9-25.1 0.2-6.7-5.7-6.7-14.8 0.3-20.5l65.4-53.4c6.9-5.9 18.1-5.9 25-0.2z"/>
	<path id="&lt;Path&gt;" class="s6" d="m100.9 178.6c7-5.7 18.1-5.7 25.1 0.2l65.4 53.4c6.9 5.7 6.9 14.8 0.2 20.5-6.8 5.7-18.1 5.5-25.1-0.2l-65.4-53.4c-7-5.7-7-15.1-0.2-20.5z"/>
	<path id="&lt;Path&gt;" class="s5" d="m165.9 135.6c1.9 0 3.7 1.6 3.7 3.7v10.9c0 2-1.8 3.8-3.7 3.8-2 0-3.7-1.8-3.7-3.8v-10.9c0-2.1 1.7-3.7 3.7-3.7z"/>
	<path id="&lt;Path&gt;" class="s5" d="m179.2 135.6c1.9 0 3.7 1.6 3.7 3.7v10.9c0 2-1.8 3.8-3.7 3.8-2 0-3.7-1.8-3.7-3.8v-10.9c0-2.1 1.7-3.7 3.7-3.7z"/>
	<path id="&lt;Path&gt;" class="s5" d="m192.5 135.6c1.9 0 3.7 1.6 3.7 3.7v10.9c0 2-1.8 3.8-3.7 3.8-2 0-3.7-1.8-3.7-3.8v-10.9c0-2.1 1.7-3.7 3.7-3.7z"/>
</svg>