<svg width="103" height="80" viewBox="0 0 103 80" fill="none" xmlns="http://www.w3.org/2000/svg">
<path fill-rule="evenodd" clip-rule="evenodd" d="M53.0317 52.8473C49.6465 56.2124 44.9739 58.2931 39.8134 58.2931C29.4788 58.2931 21.1011 49.9486 21.1011 39.6551C21.1011 29.3617 29.4788 21.0172 39.8134 21.0172C44.9873 21.0172 49.6708 23.1087 53.0581 26.4893L68.119 11.4882C60.8934 4.38472 50.967 0 40.0124 0C17.9142 0 0 17.843 0 39.8534C0 61.8639 17.9142 79.7069 40.0124 79.7069C51.0549 79.7069 61.0525 75.2515 68.2923 68.0472L53.0317 52.8473Z" fill="#00B894"/>
<path fill-rule="evenodd" clip-rule="evenodd" d="M49.7667 39.6815L81.2456 8.32764H101.55L71.6831 38.0762L102.73 69H79.2023L49.7667 39.6815Z" fill="#00B894"/>
</svg>
