<svg width="376" height="383" viewBox="0 0 376 383" fill="none" xmlns="http://www.w3.org/2000/svg">
<path d="M211.741 293.659L259.14 324.206L248.852 341.786L206.272 309.797L211.741 293.659Z" fill="#B3B3B3"/>
<path d="M211.741 293.659L221.116 299.711C221.898 303.745 220.205 310.374 217.08 317.866L206.272 309.797L211.741 293.659Z" fill="#999999"/>
<path d="M255.103 355.907L259.921 327.953L240.909 326.08L237.784 382.996C248.592 383.284 253.671 369.163 255.103 355.907Z" fill="#B3B3B3"/>
<path d="M239.868 323.198C235.831 328.961 237.003 337.031 242.081 341.209C247.42 345.532 254.582 344.235 258.488 338.616C262.265 332.996 261.353 324.783 256.014 320.46C250.936 316.281 243.774 317.578 239.868 323.198Z" fill="#FF864D"/>
<path d="M244.946 322.909L240.909 328.529L253.41 338.903L257.447 332.996L244.946 322.909Z" fill="#D64622"/>
<path d="M276.979 293.659L324.638 324.206L314.221 341.786L271.64 309.797L276.979 293.659Z" fill="#B3B3B3"/>
<path d="M276.979 293.659L286.355 299.711C287.266 303.745 285.834 310.374 282.709 317.866L271.64 309.797L276.979 293.659Z" fill="#999999"/>
<path d="M320.732 355.907L325.289 327.953L306.538 326.08L303.413 382.996C314.221 383.284 319.039 369.163 320.732 355.907Z" fill="#B3B3B3"/>
<path d="M305.106 323.198C301.46 328.961 302.502 337.031 307.71 341.209C312.789 345.532 320.211 344.235 323.857 338.616C327.763 332.996 326.722 324.783 321.513 320.46C316.435 316.281 309.143 317.578 305.106 323.198Z" fill="#FF864D"/>
<path d="M310.184 322.909L306.538 328.529L318.779 338.903L322.685 332.996L310.184 322.909Z" fill="#D64622"/>
<path d="M163.952 293.659L116.553 324.206L126.84 341.786L169.421 309.797L163.952 293.659Z" fill="#B3B3B3"/>
<path d="M163.952 293.659L154.706 299.711C153.795 303.745 155.488 310.374 158.613 317.866L169.421 309.797L163.952 293.659Z" fill="#999999"/>
<path d="M120.59 355.907L115.772 327.953L134.783 326.08L137.908 382.996C126.84 383.284 122.022 369.163 120.59 355.907Z" fill="#B3B3B3"/>
<path d="M135.955 323.198C139.862 328.961 138.69 337.031 133.611 341.209C128.272 345.532 121.11 344.235 117.204 338.616C113.428 332.996 114.339 324.783 119.418 320.46C124.887 316.281 131.918 317.578 135.955 323.198Z" fill="#FF864D"/>
<path d="M130.746 322.909L134.783 328.529L122.282 338.903L118.246 332.996L130.746 322.909Z" fill="#D64622"/>
<path d="M98.7133 293.659L51.0542 324.206L61.4715 341.786L104.052 309.797L98.7133 293.659Z" fill="#B3B3B3"/>
<path d="M98.7133 293.659L89.3378 299.711C88.5565 303.745 89.8586 310.374 92.9838 317.866L104.052 309.797L98.7133 293.659Z" fill="#999999"/>
<path d="M54.9606 355.907L50.4031 327.953L69.1542 326.08L72.2794 382.996C61.4714 383.284 56.6535 369.163 54.9606 355.907Z" fill="#B3B3B3"/>
<path d="M70.5867 323.198C74.3629 328.961 73.191 337.031 68.1126 341.209C62.9039 345.532 55.6118 344.235 51.8355 338.616C47.9291 332.996 48.9708 324.783 54.1794 320.46C59.2579 316.281 66.6802 317.578 70.5867 323.198Z" fill="#FF864D"/>
<path d="M65.5082 322.909L69.1542 328.529L57.0441 338.903L53.0074 332.996L65.5082 322.909Z" fill="#D64622"/>
<path d="M85.9522 232.708C66.9406 245.676 56.3931 295.532 83.0874 305.33C117.464 317.866 258.879 317.866 293.126 305.33C319.82 295.532 307.32 244.38 290.391 232.708C269.687 218.587 104.703 219.884 85.9522 232.708Z" fill="#FF592E"/>
<path d="M92.9838 308.212C135.044 317.002 240.388 317.002 282.709 308.212C287.787 296.253 279.844 277.377 269.687 272.045C253.15 263.256 121.371 263.832 106.396 272.045C95.3277 277.665 87.9054 296.253 92.9838 308.212Z" fill="#D64622"/>
<path d="M85.9522 232.708C83.3478 234.341 81.0907 236.55 79.1809 239.336C80.2226 240.057 81.655 240.633 83.0874 240.921C117.464 253.457 258.879 253.457 293.126 240.921C294.558 240.633 295.73 240.057 296.902 239.336C294.949 236.598 292.605 234.293 290.391 232.708C290.391 232.708 290.001 232.708 290.001 232.42C268.255 218.587 104.964 219.884 85.9522 232.708Z" fill="#D64622"/>
<path d="M87.9054 43.948C79.4414 57.7808 82.827 211.094 80.4831 216.426C81.9155 218.011 83.3478 219.596 85.0407 221.181C102.099 235.59 145.591 242.794 188.693 242.794C231.924 242.794 275.286 235.59 292.084 221.181C293.777 219.596 295.47 218.011 296.902 216.426C294.558 211.094 300.809 62.2476 289.22 43.948C283.49 34.582 236.091 1.29682 188.693 0C141.294 1.29682 96.7601 30.1152 87.9054 43.948Z" fill="#E6E6E6"/>
<path d="M251.196 41.4983C267.083 41.4983 279.844 55.6193 279.844 72.9103C279.844 90.4895 267.083 104.61 251.196 104.61C235.57 104.61 222.809 90.4895 222.809 72.9103C222.809 55.6193 235.57 41.4983 251.196 41.4983Z" fill="#55EFC4" fill-opacity="0.49"/>
<path d="M110.303 61.5272C97.2809 92.3629 87.6449 155.187 108.349 181.267C134.523 214.841 242.602 214.841 269.036 181.267C289.48 155.187 279.844 92.3629 266.822 61.5272C251.196 23.9193 126.189 23.9193 110.303 61.5272Z" fill="#00B894"/>
<path d="M275.547 89.481C273.073 78.8182 270.208 69.1641 266.822 61.5272C263.437 53.4581 255.103 47.1181 243.774 42.363C231.534 46.1094 222.809 58.3572 222.809 72.9105C222.809 90.4896 235.57 104.611 251.196 104.611C261.614 104.611 270.468 98.5588 275.547 89.481Z" fill="#55EFC4" fill-opacity="0.5"/>
<path d="M110.303 61.5272C97.2809 92.3628 87.6449 155.187 108.349 181.267C116.292 191.642 131.918 198.847 150.409 202.593V37.3198C131.137 41.7867 115.511 49.5676 110.303 61.5272Z" fill="#2CDCAB"/>
<path d="M138.69 114.985C143.508 114.985 147.544 119.308 147.544 125.072C147.544 130.403 143.508 135.014 138.69 135.014C133.611 135.014 129.705 130.403 129.705 125.072C129.705 119.308 133.611 114.985 138.69 114.985Z" fill="#003333"/>
<path d="M238.696 114.985C243.514 114.985 247.811 119.308 247.811 125.072C247.811 130.403 243.514 135.014 238.696 135.014C233.617 135.014 229.581 130.403 229.581 125.072C229.581 119.308 233.617 114.985 238.696 114.985Z" fill="#003333"/>
<path d="M181.01 162.103H196.375C202.105 162.103 206.923 167.434 206.923 173.774C206.923 180.259 202.105 185.59 196.375 185.59H181.01C175.02 185.59 170.202 180.259 170.202 173.774C170.202 167.434 175.02 162.103 181.01 162.103Z" fill="#003333"/>
<path d="M111.735 268.011C97.8018 275.792 89.5982 307.204 109.782 313.255C135.304 321.036 240.649 321.036 266.562 313.255C286.355 307.204 276.979 275.215 264.218 268.011C248.853 259.221 125.929 259.797 111.735 268.011Z" fill="#FF864D"/>
<path d="M224.242 302.449C228.799 302.449 232.185 298.414 232.185 293.659C232.185 289.048 228.799 284.869 224.242 284.869C219.945 284.869 216.559 289.048 216.559 293.659C216.559 298.414 219.945 302.449 224.242 302.449Z" fill="white"/>
<path d="M187.911 302.449C192.078 302.449 195.855 298.414 195.855 293.659C195.855 289.048 192.078 284.869 187.911 284.869C183.614 284.869 179.968 289.048 179.968 293.659C179.968 298.414 183.614 302.449 187.911 302.449Z" fill="white"/>
<path d="M151.581 302.449C155.748 302.449 159.134 298.414 159.134 293.659C159.134 289.048 155.748 284.869 151.581 284.869C147.024 284.869 143.508 289.048 143.508 293.659C143.508 298.414 147.024 302.449 151.581 302.449Z" fill="white"/>
<path d="M40.5067 212.679L66.2895 234.005L56.6535 246.253L34.7772 225.503L40.5067 212.679Z" fill="#D64622"/>
<path d="M40.5067 212.679L47.6686 218.587C48.1894 222.045 46.2362 227.377 43.111 233.14L34.7772 225.503L40.5067 212.679Z" fill="#A63114"/>
<path d="M52.0959 141.93C55.6118 135.734 68.373 136.887 70.8471 143.804C83.3478 175.936 22.9275 216.714 18.37 214.841C13.8124 213.976 -15.356 142.363 10.6872 123.775C16.6772 119.74 27.7455 126.224 27.4851 133.861C27.2247 136.599 13.0311 176.801 27.4851 182.564C42.1995 186.599 50.7938 144.524 52.0959 141.93Z" fill="#D64622"/>
<path d="M73.9722 264.552C68.3729 264.12 58.0858 260.662 54.9606 255.763C51.3146 249.135 57.8254 232.42 64.9873 231.267C70.0657 229.97 79.4413 236.166 83.6082 240.633C88.5564 245.964 81.1341 264.841 73.9722 264.552Z" fill="#FF864D"/>
<path d="M73.9723 264.552C68.373 264.12 58.0859 260.662 54.9607 255.763C53.2679 252.304 53.919 246.541 55.8723 241.498L83.3479 254.754C81.1342 260.085 77.7486 264.84 73.9723 264.552Z" fill="#FF592E"/>
<path d="M23.4484 225.215C19.8023 220.172 14.9843 209.509 16.4167 203.89C18.1095 196.397 33.475 190.345 39.0743 194.812C43.3714 198.27 45.5851 210.086 45.5851 216.426C45.5851 223.918 28.0059 230.835 23.4484 225.215Z" fill="#FF864D"/>
<path d="M23.4484 225.215C19.8023 220.172 14.9843 209.509 16.4167 203.89C17.198 200.143 21.4951 196.685 26.3131 194.812L36.2096 225.792C31.1311 227.809 25.7923 228.097 23.4484 225.215Z" fill="#FF592E"/>
<path d="M335.186 212.679L309.403 234.005L319.039 246.253L340.915 225.503L335.186 212.679Z" fill="#D64622"/>
<path d="M335.186 212.679L328.154 218.587C327.503 222.045 329.586 227.377 332.712 233.14L340.915 225.503L335.186 212.679Z" fill="#A63114"/>
<path d="M323.597 141.93C320.211 135.734 307.32 136.887 304.845 143.804C292.345 175.936 352.765 216.714 357.323 214.841C361.88 213.976 391.179 142.363 365.005 123.775C359.015 119.74 347.947 126.224 348.207 133.861C348.598 136.599 362.792 176.801 348.207 182.564C333.493 186.599 325.029 144.524 323.597 141.93Z" fill="#D64622"/>
<path d="M301.72 264.552C307.059 264.12 317.607 260.662 320.732 255.763C324.378 249.135 317.867 232.42 310.835 231.267C305.627 229.97 296.251 236.166 292.084 240.633C287.266 245.964 294.558 264.841 301.72 264.552Z" fill="#FF864D"/>
<path d="M301.72 264.552C307.059 264.12 317.607 260.662 320.732 255.763C322.425 252.304 321.904 246.541 319.56 241.498L292.345 254.754C294.558 260.085 298.074 264.84 301.72 264.552Z" fill="#FF592E"/>
<path d="M352.244 225.215C355.89 220.172 360.708 209.509 359.276 203.89C357.583 196.397 342.348 190.345 336.618 194.812C332.061 198.27 330.107 210.086 330.107 216.426C330.107 223.918 347.687 230.835 352.244 225.215Z" fill="#FF864D"/>
<path d="M352.244 225.215C355.89 220.172 360.708 209.509 359.276 203.89C358.495 200.143 354.197 196.685 349.379 194.812L339.483 225.792C344.561 227.809 350.03 228.097 352.244 225.215Z" fill="#FF592E"/>
</svg>
